<?xml version="1.0" encoding="utf-8"?>
<!-- Generator: Adobe Illustrator 16.0.0, SVG Export Plug-In . SVG Version: 6.00 Build 0)  -->
<!DOCTYPE svg PUBLIC "-//W3C//DTD SVG 1.1//EN" "http://www.w3.org/Graphics/SVG/1.1/DTD/svg11.dtd">
<svg version="1.1" id="Layer_1" xmlns="http://www.w3.org/2000/svg" xmlns:xlink="http://www.w3.org/1999/xlink" x="0px" y="0px"
	 width="587px" height="434px" viewBox="0 0 587 434" enable-background="new 0 0 587 434" xml:space="preserve">
<g>
	<defs>
		<rect id="SVGID_1_" x="-347" y="-183" width="1280" height="800"/>
	</defs>
	<clipPath id="SVGID_2_">
		<use xlink:href="#SVGID_1_"  overflow="visible"/>
	</clipPath>
	<path clip-path="url(#SVGID_2_)" d="M135.086,79.59c0-0.787,0.682-1.496,1.624-1.496h7.878c0.859,0,1.628,0.709,1.628,1.496v44.175
		h21.837c0.941,0,1.629,0.705,1.629,1.496v6.459c0,0.787-0.688,1.492-1.629,1.492H136.71c-0.942,0-1.624-0.705-1.624-1.492V79.59z
		 M217.882,77.307c17.125,0,30.83,12.676,30.83,28.428c0,15.746-13.705,28.269-30.83,28.269c-17.13,0-30.748-12.523-30.748-28.269
		C187.134,89.983,200.752,77.307,217.882,77.307 M217.882,123.765c10.789,0,19.694-8.11,19.694-18.03
		c0-9.925-8.905-18.194-19.694-18.194c-10.794,0-19.613,8.269-19.613,18.194C198.269,115.655,207.088,123.765,217.882,123.765
		 M300.154,77.307c8.647,0,14.901,2.519,20.724,7.323c0.772,0.627,0.772,1.573,0.082,2.201l-5.218,4.963
		c-0.604,0.632-1.459,0.632-2.146,0c-3.598-2.912-8.387-4.644-13.182-4.644c-10.967,0-19.104,8.423-19.104,18.344
		c0,9.843,8.223,18.189,19.186,18.189c5.14,0,9.502-1.806,13.1-4.485c0.688-0.555,1.628-0.473,2.146,0l5.304,5.04
		c0.687,0.55,0.519,1.574-0.086,2.124c-5.822,5.199-13.187,7.642-20.806,7.642c-17.129,0-30.916-12.523-30.916-28.269
		C269.238,89.983,283.025,77.307,300.154,77.307 M338.062,131.165l26.636-52.994c0.26-0.473,0.688-0.864,1.456-0.864h0.855
		c0.854,0,1.201,0.391,1.46,0.864l26.372,52.994c0.519,1.024-0.168,2.047-1.451,2.047h-7.45c-1.288,0-1.883-0.468-2.487-1.574
		l-4.194-8.505h-25.608l-4.197,8.505c-0.338,0.787-1.11,1.574-2.479,1.574h-7.451C338.239,133.212,337.553,132.189,338.062,131.165
		 M375.063,114.396L366.5,97.07h-0.261l-8.387,17.325H375.063z M416.318,79.59c0-0.787,0.688-1.496,1.628-1.496h7.874
		c0.855,0,1.628,0.709,1.628,1.496v44.175h21.839c0.945,0,1.628,0.705,1.628,1.496v6.459c0,0.787-0.683,1.492-1.628,1.492h-31.341
		c-0.94,0-1.628-0.705-1.628-1.492V79.59z"/>
	<path clip-path="url(#SVGID_2_)" d="M221.459,367.075h-23.006c-0.97,0-1.744,0.802-1.744,1.698v59.133
		c0,0.893,0.774,1.697,1.744,1.697h23.006c18.732,0,34.068-14.024,34.068-31.354C255.527,381.1,240.191,367.075,221.459,367.075
		 M220.291,418.704h-11.062v-40.822h11.062c12.621,0,21.84,8.753,21.84,20.367C242.131,409.95,232.912,418.704,220.291,418.704"/>
	<path clip-path="url(#SVGID_2_)" d="M327.651,427.284l-29.895-60.119c-0.291-0.538-0.682-0.981-1.65-0.981h-0.974
		c-0.872,0-1.356,0.443-1.647,0.981l-30.188,60.119c-0.582,1.16,0.197,2.319,1.651,2.319h8.441c1.555,0,2.428-0.896,2.815-1.784
		l4.756-9.65h29.021l4.756,9.65c0.679,1.25,1.356,1.784,2.814,1.784H326C327.457,429.604,328.232,428.444,327.651,427.284
		 M285.719,408.256l9.516-19.652h0.29l9.702,19.652H285.719z"/>
	<path clip-path="url(#SVGID_2_)" d="M353.945,399.499l-22.126-29.834c-0.779-1.163,0-2.59,1.554-2.59h9.897
		c0.777,0,1.263,0.448,1.554,0.802l15.528,20.549l15.531-20.549c0.291-0.354,0.775-0.802,1.552-0.802h9.996
		c1.555,0,2.333,1.427,1.555,2.59l-22.42,29.747v28.494c0,0.892-0.876,1.697-1.846,1.697h-8.928c-1.068,0-1.848-0.806-1.848-1.697
		V399.499z"/>
	<path clip-path="url(#SVGID_2_)" d="M125.922,249.07c0.023-4.881,0.049-9.763,0.073-14.645h-0.001
		c-0.002-0.01,0.003-0.012,0.001-0.021c0.001-0.14,0.002-0.28,0.002-0.422c0-0.015,0-0.029-0.003-0.044c0.002,0,0.002,0,0.003,0
		c0.035-6.761,0.069-13.521,0.103-20.283c-0.053,0.028-0.112,0.049-0.187,0.051c-0.032-0.372-0.19-0.617-0.241-0.971
		c0.202,0.013,0.252-0.125,0.322-0.243c0.04,0.005,0.077,0.028,0.112,0.055c0.018-3.697,0.036-7.393,0.056-11.089
		c-0.017-0.189-0.021-0.362-0.006-0.46c0.003,0.005,0.006,0.009,0.008,0.013c0.006-0.806,0.01-1.613,0.014-2.419
		c-0.006-0.035-0.008-0.068-0.021-0.103c0.012,0.002,0.012,0.014,0.021,0.018c0.024-4.911,0.05-9.822,0.074-14.733
		c-0.005-0.033-0.007-0.07-0.015-0.094c0.005-0.004,0.01,0.004,0.015,0.001c0.004-0.653,0.008-1.306,0.01-1.959
		c-0.197-0.208-0.014-0.8-0.268-0.958h0.243c0.008,0.034,0.021,0.07,0.03,0.105c0.014-2.896,0.029-5.792,0.044-8.689
		c-0.251,0-0.503,0-0.755,0.001c0.002,0.125-0.006,0.246-0.047,0.329c-0.185-0.064-0.24-0.183-0.266-0.328
		c-1.686,0.003-3.372,0.007-5.058,0.01c0.081,0.259-0.179,0.566,0.062,0.642c-0.083,0.134-0.343,0.087-0.485,0.162
		c0.082-0.202-0.219-0.73,0.312-0.804c-0.968,0.002-1.936,0.005-2.902,0.006c0.035,0.168-0.221,0.245,0.08,0.231
		c-0.072,0.118-0.121,0.257-0.322,0.243c0.123-0.117-0.096-0.43,0.215-0.474h-0.18c-0.043,0.091-0.099,0.177-0.117,0.231
		c-0.094-0.055-0.096-0.14-0.072-0.23c-1.905,0.004-3.811,0.008-5.716,0.012c0.133,0.151,0.229,0.461-0.04,0.461
		c0.128,0.377,0.402,0.396,0.244,0.89h-0.484c0.258-0.186,0.4-0.895-0.164-0.971c0.127-0.243,0.289-0.132,0.486,0
		c0.035-0.231-0.081-0.312-0.209-0.38c-1.898,0.004-3.797,0.008-5.695,0.012c-0.107,0.081-0.216,0.163-0.084,0.206
		c-0.031,0.191-0.197-0.04-0.164-0.206c-1.386,0.003-2.773,0.006-4.158,0.009c0.018,0.097,0.012,0.196-0.05,0.278
		c-0.099-0.019-0.08-0.16,0-0.162c-0.054-0.042-0.116-0.076-0.175-0.115c-0.962,0.001-1.924,0.003-2.887,0.005
		c-0.029,0.038-0.051,0.083-0.094,0.11c-0.004-0.039-0.01-0.073-0.016-0.11c-0.779,0.002-1.557,0.003-2.336,0.006
		c0.021,0.131,0.062,0.254,0.166,0.347c-0.264,0.159-0.454-0.009-0.646-0.243c0.021-0.03,0.03-0.068,0.043-0.104
		c-1.733,0.004-3.467,0.007-5.199,0.01c0.006,0.211,0.007,0.438,0.138,0.661c-0.24,0.164-0.451,0.115-0.728,0.081
		c0-0.297-0.127-0.467-0.148-0.74c-0.232,0.001-0.465,0.001-0.697,0.002c-0.003,0.755-0.006,1.512-0.01,2.268
		c0.014,0.03,0.027,0.062,0.045,0.088c-0.021,0.004-0.025-0.006-0.045-0.003c-0.004,0.837-0.007,1.676-0.012,2.513
		c0.099,0.136,0.223,0.225,0.3,0.162c0.088,0.162-0.138,0.133-0.3,0.159c-0.004,0.683-0.006,1.365-0.01,2.048
		c0.228,0.289,0.293,0.712,0.147,1.03c-0.062-0.051-0.106-0.117-0.151-0.183c-0.015,3.664-0.031,7.327-0.047,10.992
		c0.038,0.063,0.081,0.136,0.117,0.198c-0.051-0.008-0.081,0.003-0.118,0.01c-0.009,1.896-0.016,3.792-0.024,5.688
		c0.051-0.035,0.103-0.068,0.224-0.033c0.115,0.109,0.115,0.459,0,0.565c-0.104-0.06-0.208-0.123-0.226-0.271
		c-0.004,0.963-0.008,1.927-0.012,2.891c0.069,0.166,0.102,0.357-0.003,0.562c-0.004,0.829-0.007,1.658-0.011,2.487
		c0.102,0.341,0.167,0.706,0.09,0.888c-0.042-0.012-0.057-0.054-0.093-0.073c-0.004,0.72-0.007,1.439-0.011,2.159
		c0.315,0.327,0.334,0.788,0.346,1.151c-0.18,0.04-0.275-0.002-0.35-0.069c-0.028,6.745-0.059,13.49-0.088,20.236
		c0.049,0.036,0.103,0.069,0.195,0.067c-0.193,0.285,0.133,0.653-0.162,0.89c-0.014-0.006-0.023-0.016-0.037-0.022
		c-0.002,0.683-0.006,1.363-0.008,2.045c0.016,0,0.027,0.004,0.045,0.002c0.104,0.323,0.475,0.73,0.242,1.133
		c-0.135,0.004-0.212-0.047-0.292-0.097c-0.002,0.593-0.005,1.186-0.008,1.777c-1.332,0.086-2.662,0.183-3.993,0.269
		c-0.031,0.237-0.402,0.129-0.643,0.153c-0.002-0.039-0.012-0.07-0.016-0.108c-0.777,0.05-1.555,0.104-2.333,0.155
		c-0.089,0.179-0.276,0.272-0.647,0.197c-0.03-0.052-0.043-0.099-0.063-0.148c-0.401,0.026-0.801,0.054-1.202,0.08
		c-0.025,0.576,0.48,1.203,0.133,1.687c-0.408-0.401-0.438-1.079-0.422-1.667c-0.381,0.026-0.759,0.052-1.139,0.077
		c-0.078,0.023-0.145,0.028-0.2,0.014c-0.489,0.032-0.978,0.065-1.467,0.098c0.42,0.178,0.356,1.028,0.476,1.642
		c-0.078-0.002-0.063-0.101-0.08-0.163c-0.144,0.072-0.104,0.328-0.404,0.244c-0.223-0.771,0.107-1.311-0.066-1.717
		c-0.336,0.022-0.671,0.045-1.007,0.067c-0.096,0.027-0.22,0.025-0.345,0.023c-0.434,0.028-0.869,0.058-1.303,0.088
		c0.244,0.331,0.393,0.871,0.371,1.457c-0.129,0.165-0.404,0.187-0.727,0.162c0.088-0.606-0.088-1.121-0.102-1.589
		c-0.789,0.054-1.578,0.104-2.365,0.158c0.078,0.529-0.045,1.173-0.123,1.674c-0.689-0.125-0.706-0.896-0.59-1.625
		c-0.824,0.057-1.648,0.108-2.473,0.166c0.08,0.489,0.172,0.927,0.148,1.537c-0.706,0.184-0.807-1.404-0.566-1.376
		c-0.027-0.042-0.033-0.086-0.053-0.13c-0.98,0.069-1.961,0.14-2.941,0.208c0,0.002,0,0.003,0,0.005
		c-0.002-0.001-0.002-0.003-0.004-0.005c-0.964,0.069-1.928,0.145-2.892,0.213c0.331,0.29,0.504,1.024,0.224,1.411
		c-0.559-0.033-0.55-0.893-0.502-1.39c-0.961,0.069-1.922,0.142-2.883,0.212c0.299,0.379,0.256,0.91,0.311,1.338h-0.404
		c0.095-0.521-0.171-0.927-0.123-1.323c-0.836,0.062-1.671,0.123-2.506,0.185c0.037,0.226,0.093,0.462,0.361,0.652
		c-0.072,0.279-0.35,0.353-0.324,0.729c-0.205,0.088-0.312-0.38-0.322,0c-0.125-0.335-0.148-0.768-0.162-1.213
		c-0.113,0.185-0.165,0.056-0.145-0.125c-0.875,0.064-1.752,0.128-2.627,0.192c0.063,0.377,0.154,0.758,0.263,1.065
		c-0.075,0.141-0.253,0.179-0.486,0.161c-0.11-0.456-0.135-0.832-0.155-1.198c-0.922,0.069-1.845,0.134-2.767,0.204
		c0.069,0.361,0.092,0.71,0.008,0.994c-0.349-0.085-0.229-0.698-0.161-0.811c-0.115-0.002-0.181-0.067-0.224-0.155
		c-0.789,0.059-1.579,0.112-2.367,0.173c0.091,0.279,0.021,0.669,0.001,0.956c-0.408-0.141-0.414-0.486-0.486-0.92
		c-0.797,0.061-1.599,0.114-2.397,0.176c0.011-4.783,0.024-9.567,0.035-14.351c-0.056,0.032-0.116,0.062-0.146,0.12
		c-0.152-0.009-0.057-0.266-0.244-0.242c0.09-0.177,0.225-0.208,0.391-0.171c0.008-3.711,0.017-7.42,0.025-11.129
		c-0.004-0.01-0.004-0.023-0.011-0.032c0.003-0.004,0.009-0.007,0.011-0.011c0.004-1.399,0.008-2.797,0.01-4.196h-0.021
		c-0.144-0.038-0.077-0.065,0.022-0.079c0-0.285,0.001-0.569,0.002-0.854c-0.035-0.012-0.049-0.047-0.104-0.038
		c-0.066-0.351-0.035-0.636,0.105-0.844c0.002-0.558,0.003-1.116,0.004-1.675c-0.076-0.026-0.161-0.068-0.273-0.152
		c-0.014-0.068,0.032-0.076,0.082-0.081v-0.162c0.088,0.021,0.055,0.161,0.161,0.162c0.015-0.003,0.021-0.012,0.031-0.018
		c0-0.084,0.001-0.167,0.001-0.25c-0.087-0.105-0.173-0.208-0.193-0.38c0.113-0.001,0.17-0.004,0.194-0.01v-0.03
		c-0.043-0.039-0.169-0.118-0.112-0.282c0.038-0.02,0.075-0.013,0.112-0.011c0.001-0.201,0.001-0.404,0.002-0.606
		c-0.01,0.017-0.024,0.032-0.035,0.049c-0.071-0.062-0.183-0.087-0.323-0.081c0.002-0.078,0.099-0.062,0.162-0.079
		c0.119-0.07,0.174-0.204,0.161-0.405c0.015-0.002,0.022,0.001,0.036,0.001c0.001-0.372,0.002-0.744,0.003-1.115
		c-0.012-0.007-0.028-0.009-0.039-0.019c0.011-0.036,0.025-0.038,0.039-0.052c0-0.07,0-0.141,0-0.211
		c-0.013,0.005-0.03-0.002-0.039,0.02c-0.169,0.07,0.117-0.413-0.079-0.164c0.024-0.202,0.01-0.372-0.082-0.809
		c0.102,0.018,0.161-0.006,0.203-0.046c0.001-0.451,0.002-0.901,0.004-1.351c-0.046,0.004-0.08,0.019-0.125,0.021
		c0.313-0.425-0.666-1.319,0.079-1.698c-0.069-0.235-0.12-0.09-0.323-0.081c0.031-0.188,0.222-0.219,0.373-0.287
		c0.002-0.459,0.002-0.918,0.004-1.378c-0.055-0.009-0.104-0.007-0.133,0.046c0.016-0.013-0.005-0.437,0.133-0.468V193.2
		c-0.352-0.268-0.363-0.937-0.054-1.265c0.032,0.004,0.043,0.025,0.058,0.043c0-0.409,0.002-0.818,0.002-1.228
		c-0.127-0.058-0.172-0.613-0.139-0.919h0.143v-0.116c-0.075,0.027-0.172,0.069-0.307,0.035c-0.07-0.441,0.239-0.587,0.082-0.89
		c0.079-0.031,0.153-0.104,0.227-0.158c0.001-0.112,0.001-0.224,0.001-0.336c-0.106,0.017-0.206,0.05-0.146,0.17
		c-0.203-0.011-0.025-0.274,0-0.322c0.062-0.009,0.108,0.018,0.146,0.038c0-0.351,0.001-0.701,0.002-1.05
		c-0.141-0.244-0.252-0.49-0.393-0.609c0.311-0.341,0.258-0.774,0-1.133c0.207,0.379,0.312-0.091,0.397-0.305
		c0-0.143,0-0.286,0.001-0.429c-0.145-0.013-0.26-0.055-0.398-0.074c-0.015-0.236,0.285-0.572,0.08-0.728
		c0.07-0.234,0.121-0.095,0.32-0.082v-0.006c-0.039-0.146-0.227-0.144-0.156-0.398c0.064,0.013,0.115,0.035,0.157,0.06
		c0-0.158,0-0.316,0.001-0.473c-0.095-0.01-0.156-0.053-0.24-0.072c0.012-0.097,0.146-0.07,0.24-0.083v-0.001
		c-0.015-0.146-0.271-0.049-0.322-0.159c0.049-0.093,0.172-0.009,0.323-0.052c0.001-0.333,0.001-0.666,0.002-1h-0.161
		c0.09-0.224,0.125-0.455-0.244-0.407c-0.16-0.279,0.274-0.355,0.08-0.403c0.017-0.092,0.082-0.045,0.082,0
		c0.137,0.029,0.152-0.063,0.161-0.162c0.058,0.046,0.063,0.089,0.085,0.131c0.002-0.764,0.004-1.528,0.006-2.293
		c-0.148-0.029-0.326-0.074-0.496-0.023c-0.035-0.873-0.131-1.08-0.08-1.619c0.611,0.248,0.26,0.897,0.485,1.538
		c0.039,0.007,0.062,0.001,0.091-0.001c0-0.087,0-0.174,0-0.261c-0.056-0.049-0.098-0.112-0.091-0.224
		c0.025,0.015,0.064,0.017,0.093,0.03c0-0.89,0.004-1.782,0.006-2.672c-0.058,0.037-0.168,0.057-0.422,0.052
		c-0.069-0.065-0.049-0.221-0.162-0.243c-0.039-0.254,0.218-0.214,0.242-0.405c-0.201,0.249-0.197-0.528-0.242-0.647
		c0.441-0.043,0.385,0.475,0.584,0.739c0.002-0.808,0.004-1.615,0.006-2.423c-0.41,0-0.825,0.002-1.236,0.003v0.143
		c-0.191-0.026-0.305-0.128-0.568-0.081c0.403,0.131,0.265,0.273,0.082,0.567c0.211,0.06,0.211,0.327,0.324,0.487
		c-0.137,0.105-0.173,0.311-0.486,0.241c-0.017-0.483,0.027-1.018-0.086-1.355c-0.334,0.001-0.67,0.002-1.004,0.002
		c0.018,0.022,0.053,0.04,0.118,0.058c-0.137,0.182-0.228,0.054-0.337-0.057c-0.923,0.002-1.848,0.006-2.773,0.008
		c-0.057,0.028-0.109,0.061-0.209,0.049c0.082,0.228,0.217-0.117,0.326,0.081c0.014,0.175-0.289,0.037-0.406,0.081
		c0.008-0.095-0.027-0.148-0.053-0.21c-0.787,0.002-1.572,0.004-2.359,0.006c0.023,0.04,0.049,0.078,0.065,0.123
		c-0.19,0.062-0.226-0.033-0.265-0.122c-0.938,0.002-1.875,0.005-2.814,0.008c0.014,0.134-0.011,0.305,0.004,0.438h-0.324
		c-0.103-0.119,0-0.275,0.082-0.438c-0.912,0.003-1.825,0.005-2.738,0.008c0.023,0.158,0.018,0.336-0.014,0.511
		c-0.332-0.059-0.31-0.288-0.248-0.51c-0.768,0.002-1.536,0.004-2.305,0.006c0.122,0.115,0.129,0.344,0.125,0.585
		c-0.338-0.036-0.212-0.33-0.174-0.585c-1.042,0.003-2.081,0.006-3.121,0.009c0.083,0.074,0.188,0.127,0.219,0.252
		c-0.129,0.31-0.129,0.095,0,0.405c-0.082-0.172-0.422-0.416-0.475-0.657c-0.889,0.004-1.773,0.006-2.661,0.008
		c0.039,0.111,0.054,0.239-0.021,0.325c0.285-0.235,0.266-0.037,0.324,0.324c-0.141,0.309,0.006-0.314-0.162-0.243
		c-0.176-0.014-0.037,0.289-0.082,0.405c-0.422-0.071-0.079-0.597-0.211-0.81c-4.93,0.013-9.84,0.027-14.68,0.041v35.975
		c0.086-0.177-0.003-0.269,0.162-0.486c0.159,0.062,0.043,0.522-0.162,0.486v94.115c0.12-0.052,0.252-0.08,0.309-0.05
		c0.017,0.109-0.106,0.107-0.139,0.012c-0.004,0.167-0.072,0.245-0.17,0.312v1.003c0.043-0.01,0.073-0.034,0.127-0.035
		c-0.014,0.117-0.063,0.199-0.127,0.272v5.022c0.051-0.032,0.1-0.061,0.151-0.092c-0.029,0.159,0.043,0.062,0.123,0.205
		c-0.152,0.116-0.187,0.142-0.274,0.141v1.246c0.004,0.008,0.01,0.016,0.014,0.024c-0.006,0.001-0.008,0.004-0.014,0.006v3.916
		c0.012,0.03,0.012,0.059,0,0.084v1.091c0.072-0.022,0.143-0.028,0.201,0.009c-0.003,0.14-0.092,0.246-0.201,0.34v5.021
		c0.258-0.253,0.543-0.443,0.907-0.493c0.099,0.39-0.675,0.587-0.674,0.96C5.149,321.6,5.074,321.608,5,321.621v5.976
		c0.114-0.085,0.213-0.17,0.234-0.266c0.059,0.001,0.119,0,0.193-0.047c-0.045,0.228-0.323,0.401-0.274,0.651
		c-0.063,0.007-0.106,0.048-0.153,0.081v5.033c0.055-0.003,0.104,0.012,0.174-0.046C5.1,333.086,5.057,333.173,5,333.257v12.151
		c0.199-0.163,0.434-0.319,0.695-0.47c0.027,0.064,0.068,0.084,0.117,0.07c0.025,0.074-0.078,0.116-0.109,0.063
		c0.122,0.12-0.094,0.382-0.163,0.587c-0.182,0.04-0.37,0.105-0.54,0.102v1.008c0.021-0.021,0.041-0.031,0.063-0.06
		c0.087,0.196-0.175,0.243,0.077,0.371c-0.057-0.01-0.102,0.003-0.141,0.024v5.135c0.127-0.079,0.217-0.024,0.352-0.136
		c-0.065,0.12-0.199,0.36-0.352,0.434v5.322c0.104-0.173,0.408-0.32,0.662-0.441c0.059,0.182,0,0.329-0.104,0.455
		c3.1-0.736,6.224-1.468,9.365-2.188c-0.1-0.025-0.166,0.033-0.314-0.14c0.02-0.396,0.756-0.876,1.131-0.814
		c-0.068,0.344-0.469,0.611-0.677,0.921c1.899-0.436,3.812-0.864,5.721-1.295c0.085-0.059,0.228-0.104,0.287-0.168
		c0.004,0.044-0.032,0.078-0.058,0.115c1.209-0.271,2.414-0.545,3.625-0.815c-0.059-0.003-0.112-0.023-0.147-0.093
		c0.106-0.044,0.081-0.115,0.024-0.083c0.078-0.195,0.49-0.383,0.531-0.459c0.24,0.084-0.019,0.484-0.269,0.606
		c2.438-0.542,4.88-1.077,7.324-1.605c0.002,0,0.002-0.002,0.005-0.002c1.221-0.263,2.439-0.521,3.66-0.782
		c-0.01-0.181,0.267-0.299,0.275-0.475c0.082-0.028,0.12,0.104,0.176,0.171c-0.133,0.062-0.196,0.136-0.155,0.234
		c-0.144-0.06-0.126-0.028-0.229,0.056c2.295-0.489,4.59-0.979,6.877-1.455c0.002-1.037,0.004-2.071,0.008-3.107
		c-0.047,0.105-0.121,0.205-0.291,0.281c-0.254-0.104-0.03-0.345-0.237-0.273c-0.019-0.273,0.303-0.28,0.528-0.347
		c0.004-2.023,0.01-4.05,0.015-6.074c-0.216,0.043-0.388,0.111-0.55,0.021c0.215-0.176,0.259-0.503,0.552-0.738
		c0-0.251,0.001-0.503,0.002-0.756c-0.073-0.003-0.142-0.026-0.192-0.113c0.067-0.049,0.131-0.117,0.193-0.185
		c0.004-1.837,0.008-3.676,0.014-5.514c-0.226,0.219-0.505,0.346-0.556,0.688c-0.16,0.086-0.229-0.153-0.321-0.294
		c0.213-0.113,0.579-0.552,0.877-0.665c0-0.385,0.002-0.77,0.002-1.154c-0.05,0.059-0.1,0.111-0.156,0.206
		c-0.226,0.018-0.242-0.092-0.323-0.296c0.204-0.17,0.341-0.293,0.481-0.396c0-0.221,0-0.441,0.002-0.662
		c-0.084-0.03-0.158-0.097-0.217-0.215c0.092-0.05,0.156-0.092,0.217-0.134c0.004-1.236,0.006-2.471,0.01-3.706
		c-0.084,0.094-0.158,0.188-0.135,0.306c-0.309,0.068-0.543,0.201-0.719,0.153c-0.137-0.169,0.415-0.412,0.512-0.378
		c0.071-0.05,0.09-0.325-0.016-0.27c0.018-0.123,0.2-0.207,0.357-0.264c0.002-0.208,0.002-0.419,0.003-0.629
		c-0.087,0.034-0.173,0.073-0.265,0.068c-0.072-0.219,0.063-0.392,0.266-0.532c0.004-1.66,0.008-3.32,0.012-4.981
		c-0.242,0.164-0.361,0.265-0.627,0.504c0.062-0.147-0.029-0.332-0.167-0.524c0.198-0.064,0.45-0.169,0.478-0.427
		c-0.045,0.17,0.084,0.09,0.201,0.09c0.105-0.104-0.113-0.042-0.037-0.188c0.051-0.03,0.104-0.061,0.154-0.092
		c0-0.165,0-0.329,0.001-0.494c-0.198,0.03-0.396,0.041-0.53-0.165c0.144-0.136,0.328-0.304,0.532-0.45
		c0-0.339,0.001-0.678,0.002-1.018c-0.009-0.008-0.019-0.006-0.028-0.017c0.016-0.004,0.018-0.012,0.028-0.018
		c0.001-0.698,0.005-1.396,0.005-2.095c-0.324,0.07-0.83,0.42-0.89,0.677c-0.26,0.006-0.133-0.181-0.13-0.34
		c-0.18,0.254-0.232-0.372,0.031-0.438c0.043,0.07,0.082,0.14,0.123,0.206c0.1-0.272,0.425-0.497,0.744-0.723
		c0.155,0.279,0.039,0.38,0.121,0.559c0.002-0.419,0.002-0.837,0.004-1.254c-0.047,0.096-0.098,0.196-0.147,0.29
		c-0.024-0.195-0.338-0.158-0.308-0.023c-0.615-0.429,0.244-0.515,0.457-0.897c0-0.245,0-0.49,0.002-0.734
		c-0.053,0.016-0.096,0.051-0.152,0.057c-0.081-0.138-0.195-0.282-0.159-0.392c0.126-0.014,0.222-0.066,0.312-0.128
		c0.004-1.228,0.006-2.454,0.01-3.681c-0.156,0.192-0.487,0.346-0.748,0.515c0.35,0.065-0.146,0.296-0.232-0.141
		c0.227-0.062,0.494-0.358,0.612-0.575c0.178-0.093,0.261,0.056,0.368-0.039c0.001-0.318,0.002-0.639,0.003-0.956
		c-0.187,0.117-0.392,0.215-0.493,0.303c-0.07-0.119-0.143-0.24-0.215-0.358c0.273,0.14,0.458-0.242,0.709-0.399
		c0-0.28,0.001-0.56,0.002-0.839c-0.061-0.046-0.135-0.135-0.234-0.3c0.053-0.033,0.006-0.089-0.006-0.136
		c0.087-0.03,0.172-0.054,0.241-0.017c0.002-0.772,0.004-1.545,0.006-2.316c-0.021-0.018-0.037-0.029-0.069-0.07
		c-0.252,0.309-0.797,0.673-1.115,1.085c-0.243,0.064-0.383-0.421-0.082-0.508c0.308-0.242,0.261-0.318,0.486-0.292
		c-0.205-0.276,0.201,0.014,0.303-0.11c0.011-0.013,0.068-0.243,0.016-0.219c0.139-0.07,0.32-0.018,0.462-0.134
		c0.002-0.696,0.004-1.395,0.006-2.092c-0.081,0.048-0.163,0.096-0.241,0.145c-0.07-0.178-0.24-0.13-0.186-0.309
		c0.158-0.121,0.3-0.171,0.427-0.246c0.005-1.51,0.009-3.022,0.013-4.532c-0.097,0.081-0.207,0.17-0.344,0.268
		c0.004-0.059,0.006-0.117-0.039-0.187c-0.201,0.06,0.024,0.212-0.039,0.303c-0.131,0.034-0.17-0.25-0.341-0.077
		c-0.2-0.626,0.566-0.506,0.647-1.009c0.033-0.01,0.076-0.017,0.117-0.024c0-0.229,0-0.455,0-0.684
		c-0.139,0.106-0.267,0.215-0.394,0.245c-0.147-0.165-0.128-0.295-0.108-0.424c0.138-0.114,0.408-0.101,0.504-0.192
		c0-0.731,0.004-1.464,0.005-2.196c-0.05,0.03-0.079,0.095-0.237,0.139c0.021-0.128,0.262-0.206,0.148-0.366
		c0.033-0.019,0.063-0.021,0.09-0.013c0.002-0.745,0.004-1.489,0.005-2.234c-0.134,0.152-0.431,0.283-0.589,0.315
		c-0.143-0.137-0.01-0.208-0.045-0.32c0.115-0.09,0.147,0.111,0.254,0.056c0.053-0.078,0.035-0.171-0.014-0.269
		c0.105,0.057,0.236,0.01,0.362-0.008c0.011,0.017,0.021,0.034,0.032,0.053c0-0.326,0.002-0.653,0.003-0.979
		c-0.021,0.011-0.031,0.022-0.056,0.031c-0.066-0.131-0.153-0.195-0.26-0.189c-0.024-0.154,0.135-0.267,0.287-0.38
		c-0.078,0.128-0.041,0.134,0.028,0.11c0-0.077,0-0.152,0.001-0.229c-0.011-0.008-0.029-0.007-0.037-0.019
		c0.016-0.009,0.023-0.011,0.037-0.02c0.001-0.302,0.002-0.604,0.002-0.905c-0.029-0.059-0.061-0.116-0.098-0.154
		c0.021,0.001,0.06,0.007,0.098,0.013c0.004-1.119,0.006-2.238,0.01-3.358c-0.259-0.019-0.347,0.026-0.634,0.252
		c0.019-0.159-0.073-0.342,0.086-0.47c0.109,0.302,0.267-0.014,0.216-0.13c0.059,0.041,0.198,0.161,0.332,0.32v-0.166
		c-0.109-0.026-0.228-0.16-0.199-0.304c0.082-0.014,0.139,0.067,0.199,0.134c0.002-0.34,0.002-0.678,0.002-1.018
		c-0.099,0.084-0.162,0.049-0.244,0.077c-0.097-0.125-0.026-0.215,0.127-0.284c0.037,0.067,0.076,0.134,0.117,0.201
		c0.002-0.947,0.006-1.894,0.008-2.841c0.233-0.029,0.468-0.055,0.701-0.084c-0.043-0.029-0.084-0.062-0.115-0.138
		c0.072-0.044,0.144-0.087,0.218-0.131c0.047,0.159,0.149,0.122,0.211,0.231c0.588-0.073,1.178-0.14,1.765-0.212
		c0-0.009,0.006-0.014,0.004-0.022c0.038-0.011,0.057,0.005,0.082,0.011c1.666-0.206,3.334-0.396,5-0.6
		c0.078-0.037,0.166-0.081,0.27-0.173c-0.012,0.059-0.072,0.105-0.121,0.156c1.551-0.189,3.104-0.372,4.654-0.559
		c0.203-0.078,0.275-0.143,0.566-0.282c0.248-0.062-0.326,0.249-0.021,0.218c5.59-0.666,11.183-1.312,16.779-1.937
		c-0.123-0.433-0.021-1.179,0.107-1.256c0.39,0.095,0.371,0.6,0.646,0.809c0.028,0.182-0.054,0.251-0.082,0.374
		c0.869-0.097,1.739-0.189,2.61-0.286c-0.032-0.123-0.035-0.261,0.063-0.41c0.189,0.046,0.287,0.186,0.344,0.366
		c3.72-0.408,7.439-0.836,11.162-1.225c-0.008,1.826-0.016,3.652-0.023,5.479c0.002-0.004,0.008-0.002,0.01-0.008
		c0.142,0.305-0.093,0.568,0.162,0.971c-0.091-0.015-0.137,0.017-0.177,0.053c-0.003,0.74-0.006,1.478-0.009,2.217
		c0.055-0.008,0.111-0.014,0.186-0.005c-0.041,0.342-0.019,1.163-0.082,1.459c-0.052-0.034-0.072-0.083-0.111-0.122
		c-0.004,0.951-0.008,1.902-0.012,2.853c0.068-0.048,0.197-0.031,0.205-0.141c0.135,0.051,0.049,0.186-0.082,0.16
		c0.053,0.243,0.174-0.078,0.324,0c-0.013,0.094,0.016,0.146,0.08,0.162c0.038,0.256-0.219,0.215-0.242,0.405
		c-0.199-0.01-0.018-0.268,0.081-0.243c-0.063-0.058-0.253-0.043-0.366-0.194c-0.016,3.811-0.033,7.621-0.05,11.434
		c0.036-0.03,0.067-0.061,0.108-0.086c0.104,0.122,0.017,0.203-0.109,0.275c-0.008,2.022-0.017,4.045-0.025,6.068
		c0.092-0.116,0.254-0.146,0.461-0.273c-0.094,0.218-0.281,0.36-0.461,0.421c-0.021,4.706-0.041,9.41-0.062,14.114
		c0.059,0.002,0.119,0.005,0.18,0.004c-0.016,0.053-0.093,0.095-0.18,0.157c-0.011,2.446-0.021,4.894-0.031,7.343
		c0.098-0.069,0.231-0.117,0.295-0.104c0.092,0.152-0.441,0.167-0.231,0.349c-0.026,0.009-0.045-0.008-0.065-0.022
		c-0.007,1.654-0.014,3.308-0.021,4.959c0.177-0.065,0.386-0.052,0.585-0.296c0.166,0.306-0.357,0.358-0.488,0.293
		c-0.087,0.178,0.204,0.16,0.045,0.321c-0.091-0.021-0.111-0.077-0.143-0.145c-0.002,0.459-0.004,0.919-0.006,1.379
		c0.022-0.006,0.043-0.015,0.074-0.008c0.096,0.092,0.021,0.143-0.076,0.189c-0.008,2.023-0.017,4.044-0.025,6.066
		c0.006-0.003,0.01-0.006,0.016-0.01c0.029,0.051,0.062,0.102,0.092,0.153c0.063-0.184,0.186-0.232,0.35-0.278
		c0.068,0.153-0.116,0.188-0.217,0.129c-0.135,0.14,0.17,0.003,0.176,0.175c-0.212,0.067-0.171,0.229-0.324,0.192
		c0.111,0.028,0.182,0.148,0.154,0.258c-0.105-0.006-0.17-0.148-0.248-0.251c-0.003,0.639-0.005,1.277-0.008,1.916
		c2.087-0.361,4.178-0.688,6.267-1.04c-0.166-0.025-0.312-0.109-0.413-0.356c0.262-0.236,0.674-0.032,0.48-0.425
		c0.182-0.213,0.501-0.092,0.447,0.011c-0.064,0.178-0.067,0.025-0.193,0.047c-0.135,0.195,0.07,0.19,0.105,0.424
		c-0.076-0.014-0.322,0.165-0.388,0.293c0.417-0.069,0.835-0.139,1.252-0.209c0.063-0.098,0.142-0.192,0.271-0.277
		c-0.006,0.083-0.03,0.161-0.045,0.239c10.078-1.686,20.164-3.292,30.267-4.752c0.144-28.449,0.288-56.901,0.433-85.352
		C125.84,249.497,125.827,249.276,125.922,249.07"/>
	<path clip-path="url(#SVGID_2_)" d="M544.413,273.599c0.02-0.02,0.037-0.031,0.057-0.048c-0.396-0.826-0.792-1.652-1.188-2.477
		c-0.127,0.107-0.242,0.23-0.381,0.313c-0.064-0.084,0.08-0.397-0.096-0.318c0.039-0.185,0.157-0.295,0.29-0.388
		c-0.416-0.865-0.832-1.741-1.248-2.603c0.012,0.188-0.315,0.42-0.509,0.378c-0.037-0.088,0.092-0.134,0.167-0.192
		c-0.022-0.067-0.067-0.051-0.11-0.028c0.059-0.115,0.24-0.224,0.442-0.178c-0.068-0.142-0.138-0.286-0.206-0.428
		c4.005-2.7,7.418-5.719,10.356-8.996c-0.01-0.064,0.007-0.121,0.067-0.168c0.036,0.007,0.057,0,0.084-0.002
		c0.999-1.124,1.957-2.271,2.844-3.456c-0.247-0.16-0.301-0.415-0.409-0.688c0.229,0.016,0.29,0.27,0.391-0.138
		c0.097,0.081,0.114,0.039,0.304,0.196c0.165-0.097,0.132-0.243,0.375-0.32c-0.071-0.185-0.294,0.228-0.333-0.083
		c0.185-0.112,0.371-0.222,0.555-0.332c0.039,0.067-0.052,0.103-0.097,0.151c0.014,0.026,0.024,0.037,0.037,0.059
		c2.503-3.532,4.567-7.309,6.243-11.31c-0.023-0.031-0.057-0.059-0.119-0.073c-0.004,0.003-0.006,0.005-0.009,0.007
		c-0.003-0.004-0.007-0.006-0.01-0.01c-0.032-0.007-0.053-0.02-0.103-0.019c-0.025-0.122,0.059-0.052,0.103,0.019
		c0.007,0.001,0.013,0.002,0.019,0.003c0.113-0.09,0.177-0.151,0.228-0.199c0.221-0.535,0.429-1.077,0.636-1.619
		c-0.049-0.057-0.013-0.139,0.085-0.211c0.033-0.091,0.071-0.179,0.105-0.269c-0.229,0.146-0.549,0.285-0.616,0.529
		c-0.082-0.138-0.166-0.277-0.249-0.417c0.434-0.019,0.319-0.185,0.653-0.484c0.098,0.152,0.305-0.016,0.305,0.132
		c3.437-9.257,5.058-19.575,5.816-30.517c-0.067-0.06-0.13-0.136-0.189-0.225c0.03-0.127,0.108-0.119,0.211-0.141
		c0.223-3.285,0.369-6.626,0.465-10.011c-0.156,0.055-0.352,0.015-0.437-0.175c0.021-0.093,0.165-0.154,0.124-0.264
		c0.156,0.055,0.239,0.095,0.32,0.107c0.105-3.946,0.147-7.949,0.159-11.994c-0.075-0.002-0.125-0.057-0.087-0.229
		c0.033-0.008,0.062-0.001,0.088,0.011c0.005-1.69,0.005-3.387,0.003-5.089c-0.1,0.062-0.225,0.047-0.303-0.168
		c0.122-0.12,0.206-0.083,0.303-0.099c-0.001-1.809-0.004-3.623-0.007-5.443c-4.699-0.012-9.348-0.025-13.998-0.038
		c-0.061,0.072-0.201,0.077-0.295,0c-0.625-0.002-1.257-0.004-1.882-0.006c-0.025,0.011-0.04,0.03-0.073,0.037
		c0.042,0.065,0.114,0.003,0.18-0.014c0.13,0.252-0.149,0.165-0.313-0.023c-1.851-0.005-3.709-0.01-5.555-0.015
		c-0.024,0.092-0.521,0.38-0.186,0.64c-0.208,0.125-0.416,0.248-0.624,0.373c-0.069-0.114-0.14-0.232-0.208-0.347
		c0.192-0.088,0.361-0.184,0.152-0.374c0.302-0.25,0.515-0.154,0.787-0.293c-0.803-0.002-1.604-0.004-2.403-0.006
		c-0.158,0.069-0.428,0.088-0.535,0.172c-0.01-0.076,0.009-0.124,0.027-0.173c-0.645-0.002-1.29-0.004-1.934-0.005
		c0.023,0.042,0.045,0.084,0.089,0.132c-0.092-0.015-0.164-0.067-0.227-0.133c-1.947-0.005-3.896-0.01-5.842-0.015
		c-0.229,0.21-0.506,0.409-0.832,0.596c0.006-0.181,0.173-0.418,0.392-0.597c-0.544-0.002-1.089-0.003-1.633-0.004
		c-0.012,0.014-0.025,0.028-0.034,0.043c-0.002-0.015,0.005-0.029,0.005-0.043c-0.73-0.002-1.462-0.005-2.191-0.006
		c-0.173,0.139-0.526,0.244-0.672,0.155c-0.027-0.052-0.062-0.105-0.097-0.157c-0.151-0.001-0.302-0.001-0.453-0.001
		c0.003,1.177,0.009,2.356,0.016,3.534c0.089-0.165,0.155-0.334,0.279-0.489c0.096,0.103,0.024,0.163-0.057,0.222
		c0.078,0.244,0.241,0.134,0.317,0.376c-0.131,0.002-0.365,0.085-0.539,0.219c0.004,0.406,0.006,0.81,0.007,1.214
		c0.119-0.011,0.23,0.011,0.322,0.107c-0.111,0.105-0.29,0.192-0.318,0.316v0.007c-0.009,0.041-0.004,0.085,0.027,0.135
		c-0.011,0.004-0.018,0.01-0.027,0.014c0.012,2.183,0.021,4.362,0.017,6.524c0.198-0.178,0.425-0.23,0.431-0.473
		c0.287-0.122,0.482,0.119,0.765,0.016c0.043,0.11-0.193,0.148-0.126,0.264c-0.083-0.093-0.166-0.069-0.373-0.154
		c-0.17,0.18,0.175,0.2,0.207,0.347c-0.223,0.246-0.812,0.34-0.542,0.513c0.253,0.027-0.112,0.077-0.209,0.125
		c-0.051-0.086-0.103-0.172-0.154-0.259c-0.001,0.455-0.005,0.907-0.008,1.36c0.133-0.131,0.253-0.309,0.426-0.503
		c0.148,0.505,0.581-0.125,0.749,0.307c-0.068-0.014-0.38-0.159-0.319,0.096c-0.119-0.079-0.281,0.028-0.376-0.152
		c-0.109,0.13-0.219,0.567-0.14,0.555c-0.009,0.172-0.452-0.023-0.263,0.346c-0.025-0.008-0.054-0.001-0.081,0.002
		c-0.002,0.329-0.005,0.659-0.008,0.986c0.008-0.004,0.009,0.001,0.017-0.004c0.042,0.069,0.083,0.139,0.125,0.209
		c-0.053,0.034-0.103,0.07-0.147,0.106c-0.006,0.484-0.014,0.964-0.021,1.446c0.019,0.134,0.032,0.24-0.004,0.358
		c-0.018,0.936-0.039,1.866-0.067,2.79c0.021-0.03,0.04-0.06,0.081-0.081c0.124,0.052,0.24,0.144,0.374,0.155
		c0.081-0.077-0.047-0.209-0.098-0.321c0.21-0.197,0.328-0.054,0.528-0.219c-0.087-0.044-0.2,0.024-0.263-0.126
		c0.174-0.074,0.337-0.087,0.497-0.111c-0.011,0.234-0.064,0.456-0.053,0.696c-0.099-0.014-0.183-0.064-0.266-0.126
		c0.027,0.128-0.299,0.555-0.555,0.331c-0.127,0.173,0.318,0.226-0.042,0.404c0.013-0.274-0.102-0.102-0.221-0.009
		c-0.013,0.374-0.03,0.743-0.044,1.114c0.094-0.015,0.205-0.045,0.332-0.204c0.167,0.401,0.538,0.26,0.694,0.057
		c-0.042,0.494-0.72,0.464-0.652,0.957c-0.123,0.015-0.339-0.011-0.409,0.087c-0.014,0.333-0.025,0.669-0.042,1
		c0.384-0.094,0.517-0.007,0.908-0.323c0.071,0.348-0.428,0.522-0.726,0.525c0.114,0.285-0.022,0.506-0.234,0.708
		c-0.021,0.38-0.044,0.759-0.067,1.136c0.027,0.001,0.05-0.017,0.076-0.011c0,0.113-0.039,0.217-0.093,0.315
		c-0.075,1.14-0.157,2.272-0.26,3.384c0.048-0.009,0.098-0.034,0.155-0.089c0.095,0.161,0.193,0.324,0.289,0.486
		c-0.185,0.008-0.271-0.202-0.453-0.3c-0.168,1.82-0.379,3.599-0.639,5.329c0.055-0.082,0.118-0.162,0.182-0.242
		c0.145,0.072,0.669-0.172,0.655-0.486c0.335-0.092,0.092,0.323-0.002,0.473c0.172,0.126,0.226-0.321,0.402,0.042
		c-0.5,0.237-0.132,0.45-0.707,0.707c-0.154,0.021-0.086-0.121-0.125-0.209c-0.28,0.186,0.013,0.516-0.35,0.681
		c-0.089-0.11-0.132-0.209-0.165-0.304c-0.09,0.561-0.182,1.121-0.284,1.672c0.466-0.41,0.966-1.284,1.127-0.55
		c-0.166,0.41-0.481,0.784-1.043,1.096c-0.045-0.077-0.091-0.154-0.137-0.231c-0.254,1.347-0.554,2.649-0.885,3.922
		c0.409-0.184,0.493-0.433,0.923-0.708c0.144,0.09-0.07,0.358,0.165,0.278c-0.187,0.417-0.623,0.593-1,0.694
		c0.384,0.173-0.245-0.013-0.016,0.291c-0.078,0.028-0.131-0.04-0.18-0.131c-0.133,0.491-0.272,0.973-0.418,1.452
		c0.034-0.032,0.063-0.07,0.111-0.086c0.059,0.229-0.204,0.38-0.1,0.624c-0.072-0.014-0.108-0.083-0.126-0.167
		c-0.148,0.479-0.299,0.961-0.462,1.428c-0.002,0.006-0.004,0.011-0.007,0.017c-0.417,1.195-0.886,2.343-1.4,3.445
		c0.071,0.002,0.144,0.005,0.212,0.02c0.254,0.411-0.19,0.415-0.279,0.64c-0.032-0.094-0.095-0.135-0.162-0.147
		c-0.066,0.139-0.141,0.27-0.21,0.405c0.017,0.045,0.006,0.08,0.039,0.13c-0.042,0.01-0.087,0.027-0.133,0.043
		c-0.272,0.534-0.55,1.064-0.851,1.573c0.107-0.082,0.183-0.173,0.288-0.258c0.078,0.552-0.317,1.152-0.995,1.357
		c-0.604,0.918-1.246,1.797-1.954,2.617c0.11-0.074,0.221-0.147,0.292-0.216c0,0.086-0.131,0.219,0.014,0.181
		c-0.469,0.27-0.784,1.228-1.32,1.262c-0.045,0.03-0.078,0.013-0.107-0.02c-1.33,1.339-2.842,2.506-4.536,3.505
		c-0.072,0.101-0.153,0.188-0.191,0.254c-0.057-0.002-0.104-0.033-0.158-0.05c-0.637,0.36-1.301,0.694-1.99,1.004
		c0.007,0.015-0.005,0.025,0.009,0.041c-0.028,0.016-0.048,0.001-0.069-0.013c-0.112,0.05-0.222,0.104-0.336,0.152
		c0.042,0.011,0.073-0.005,0.126,0.026c-0.129,0.247-0.646,0.98-0.915,0.361c0.162,0.002,0.265-0.092,0.356-0.19
		c-1.411,0.572-2.941,1.033-4.58,1.393c0.048,0.248-0.277,0.408-0.444,0.456c-0.056-0.095-0.11-0.186-0.167-0.279
		c0.033-0.017,0.065-0.039,0.099-0.059c-0.52,0.104-1.069,0.179-1.61,0.262c-0.093,0.097-0.211,0.188-0.375,0.267
		c-0.062-0.056-0.09-0.122-0.137-0.183c-1.143,0.157-2.327,0.275-3.573,0.335c-0.226,0.231-0.517,0.414-0.775,0.549
		c-0.004,0.249-0.495,0.572-0.749,0.164c0.342-0.146,0.635-0.44,0.944-0.703c-0.798,0.027-1.599,0.053-2.44,0.04
		c-0.325,0.157-0.514-0.203-0.569,0.203c-0.071,0.039-0.105-0.053-0.155-0.096c-0.028-0.048-0.056-0.095-0.082-0.141
		c0.004-0.001,0.009-0.003,0.014-0.004c-0.583-0.017-1.177-0.045-1.779-0.081c-0.086,0.057-0.185,0.093-0.303,0.096
		c-0.024-0.04-0.032-0.075-0.048-0.112c-0.155-0.01-0.298-0.009-0.456-0.021c-0.902-0.059-1.801-0.118-2.705-0.177
		c-0.004-1.044-0.009-2.088-0.014-3.133c-0.221,0.293-0.486,0.582-0.645,0.759c-0.227,0.113-0.324-0.277-0.473-0.474
		c0.46-0.298,0.708-0.694,1.114-0.879c-0.001-0.362-0.003-0.724-0.004-1.084c-0.105,0.05-0.215,0.092-0.345,0.091
		c-0.013-0.198,0.146-0.41,0.343-0.558c-0.009-2.243-0.021-4.486-0.03-6.73c-0.088,0.024-0.173,0.027-0.244-0.013
		c0.064,0.29-0.524,0.787-0.711,0.235c0.318-0.19,0.673-0.471,0.952-0.865c0-0.242-0.001-0.486-0.003-0.729
		c-0.028,0.013-0.054,0.019-0.084,0.04c-0.234-0.235-0.318-0.376-0.416-0.694c0.153-0.041,0.319-0.146,0.497-0.271
		c-0.005-1.047-0.009-2.096-0.014-3.142c-0.539,0.162-1.078,0.921-1.868,1.411c-0.237-0.157-0.206-0.291-0.331-0.555
		c0.526-0.262,1.69-1.743,2.196-1.025c-0.003-0.672-0.006-1.346-0.009-2.018c-0.443,0.266-0.418,1.058-1.323,1.017
		c0.077-0.683,0.674-0.996,1.305-1.44c-0.009,0.042,0.014,0.05,0.018,0.077c-0.002-0.39-0.004-0.777-0.005-1.165
		c-0.218,0.222-0.416,0.437-0.622,0.696c-0.135-0.164-0.333-0.083-0.458-0.291c0.293-0.368,0.697-0.663,1.078-0.911
		c-0.001-0.292-0.003-0.584-0.004-0.876c-0.014,0.016-0.032,0.024-0.046,0.04c-0.269-0.088-0.422-0.344-0.372-0.623
		c0.156-0.024,0.288-0.091,0.415-0.169c-0.01-2.127-0.02-4.254-0.029-6.38c-0.088-0.009-0.174-0.031-0.264-0.03
		c-0.004,0.306-0.062,0.26-0.404,0.428c-0.52-0.763,0.062-0.944,0.665-1.2c-0.001-0.445-0.004-0.889-0.006-1.334
		c-0.087,0.021-0.173,0.05-0.266,0.035c-0.111-0.184-0.223-0.369-0.332-0.553c0.17-0.086,0.378-0.243,0.595-0.359
		c-0.008-1.614-0.016-3.229-0.022-4.844c-0.03,0.003-0.063,0.014-0.093,0.011c0.05-0.025,0.075-0.062,0.093-0.099
		c-0.003-0.543-0.006-1.084-0.008-1.626c-0.153,0.13-0.241,0.278-0.18,0.463c-0.088,0.034-0.081-0.047-0.042-0.069
		c-0.163-0.226-0.452,0.582-0.889,0.248c-0.052-0.551,0.657-0.626,1.109-1.021c-0.002-0.313-0.003-0.624-0.005-0.937
		c-0.073,0.098-0.126,0.2-0.215,0.293c0.016-0.452-0.416,0.102-0.539-0.431c0.259-0.093,0.494-0.409,0.751-0.677
		c-0.001-0.357-0.003-0.713-0.005-1.07c-0.123-0.212-0.316-0.442-0.272-0.612c0.097-0.047,0.188-0.063,0.27-0.076
		c-0.004-1.007-0.009-2.014-0.014-3.022c-0.094-0.021-0.152-0.189-0.277-0.095c-0.234,0.48-0.691,1.194-1.459,1.344
		c-0.081-0.197,0.081-0.333-0.042-0.54c0.583-0.575,1.292-0.933,1.776-1.246c-0.002-0.285-0.003-0.571-0.003-0.856
		c-0.187,0.265-0.452,0.496-0.771,0.465c-0.11-0.186-0.221-0.37-0.332-0.555c0.265-0.18,0.672-0.521,0.779-0.749
		c0.119-0.021,0.22,0.039,0.319,0.101c0-0.267-0.002-0.533-0.003-0.801c-0.023,0.039-0.045,0.076-0.107,0.103
		c-0.28-0.271-0.612-0.378-0.568-0.792c0.325,0.12,0.489-0.073,0.671-0.278c-0.001-0.454-0.003-0.906-0.005-1.36
		c-0.021-0.015-0.046-0.021-0.067-0.04c0.017-0.021,0.049-0.039,0.066-0.06c-0.005-1.161-0.009-2.324-0.016-3.485
		c-0.1,0.068-0.261,0.075-0.322-0.064c0.135-0.147,0.213-0.063,0.322-0.105c-0.004-0.494-0.005-0.989-0.007-1.483
		c-0.315,0.299-0.717,0.577-0.911,0.906c-0.151-0.025-0.275-0.159-0.389-0.333c0.278,0.071,0.226-0.242,0.444-0.36
		c0.139,0.042,0.093,0.091,0.125,0.208c0.083-0.177,0.204-0.341,0.141-0.554c0.235-0.074,0.416-0.169,0.588-0.263
		c-0.001-0.28-0.003-0.559-0.004-0.838c-0.117,0.058-0.242,0.148-0.361,0.212c-0.068-0.115-0.138-0.231-0.207-0.347
		c0.181-0.092,0.153-0.238,0.152-0.376c0.11,0.012,0.27,0.029,0.414,0c-0.003-0.615-0.006-1.231-0.008-1.847
		c-0.038-0.08-0.077-0.158-0.124-0.205c0.043,0.015,0.081-0.005,0.123-0.002c-0.005-1.057-0.009-2.113-0.014-3.17h-0.086
		c-0.355,0.264-0.896,0.62-0.868,1.132c-0.165,0.117-0.575-0.118-0.305,0.276c-0.338-0.089-0.271-0.579-0.388-0.807
		c0.382,0.084,0.465-0.372,0.771-0.602c-0.64-0.002-1.269-0.003-1.906-0.005c-0.218,0.176-0.483,0.357-0.615,0.521
		c-0.285-0.086,0.015-0.326,0.234-0.522c-0.748-0.001-1.495-0.003-2.24-0.004c-0.077,0.111-0.168,0.233-0.296,0.301
		c-0.037-0.089-0.088-0.115-0.152-0.097c0.019-0.082,0.042-0.141,0.065-0.205c-0.562-0.001-1.127-0.002-1.687-0.003
		c-0.044,0.06-0.128,0.11-0.197,0.162c-0.015-0.085-0.034-0.125-0.054-0.163c-3.102-0.007-6.188-0.013-9.256-0.019
		c-0.034,0.019-0.059,0.04-0.101,0.057c-0.007-0.02,0-0.037-0.002-0.057c-0.754-0.002-1.515-0.004-2.268-0.005
		c-0.008,0.008-0.014,0.009-0.021,0.017c-0.003-0.005-0.006-0.011-0.01-0.017c-3.815-0.007-7.61-0.014-11.398-0.021
		c-0.033,0.064-0.083,0.112-0.167,0.076c-0.04-0.032-0.042-0.054-0.048-0.077c-2.317-0.004-4.633-0.009-6.947-0.012
		c0.042,8.316,0.084,16.632,0.128,24.95c0.189-0.092,0.318,0.046,0.528-0.137c0.108,0.238-0.291,0.381-0.419,0.25
		c0.063,0.162,0.065,0.314-0.106,0.495c0.015,2.819,0.028,5.638,0.042,8.457c0.044-0.018,0.088-0.033,0.122-0.028
		c0.132-0.133-0.15-0.057-0.055-0.25c0.068-0.038,0.103,0.054,0.15,0.098c0.066-0.072,0.103-0.227-0.014-0.181
		c0.095-0.114,0.315-0.185,0.571-0.152c0.268-0.036-0.128,0.134-0.181,0.014c-0.067,0.101-0.041,0.227,0.025,0.361
		c-0.251,0.035-0.444,0.128-0.331,0.388c-0.099-0.011-0.181-0.062-0.265-0.125c-0.005,0.039-0.017,0.054-0.022,0.08
		c0.011,2.271,0.023,4.541,0.034,6.811c0.034-0.016,0.08-0.043,0.172-0.117c-0.01,0.115,0.019,0.242,0.139,0.39
		c-0.046-0.011-0.224,0.012-0.309,0.082c0.003,0.623,0.006,1.246,0.009,1.869c0.037,0.031,0.079,0.052,0.06,0.171
		c-0.021,0.019-0.037,0.025-0.058,0.039c0.011,2.235,0.023,4.468,0.034,6.703c0.05,0.083,0.102,0.168,0.151,0.253
		c-0.069-0.001-0.114-0.006-0.15-0.009c0.015,2.979,0.03,5.959,0.046,8.939c0.27-0.064,0.01-0.266,0.244-0.338
		c0.211-0.102,0.48,0.174,0.571-0.152c0.034,0.203-0.381,0.71-0.697,0.889c-0.106-0.244,0.104-0.209-0.118-0.371
		c0.019,3.723,0.037,7.445,0.057,11.168c0.062-0.008,0.121-0.025,0.185-0.027c-0.064,0.092-0.125,0.188-0.184,0.281
		c0.027,5.5,0.056,11,0.084,16.5c0.068-0.048,0.139-0.096,0.228-0.166c0.057,0.137-0.019,0.538,0.218,0.529
		c-0.111,0.165-0.278,0.216-0.44,0.313c0.056,11.118,0.111,22.236,0.168,33.354c0.039,0.079-0.067,0.304,0.109,0.247
		c-0.012,0.052-0.096,0.031-0.096,0.096c-0.004,0-0.006-0.007-0.01-0.008c0.018,3.749,0.037,7.5,0.055,11.249
		c0.033,0.009,0.058,0.025,0.1,0.024c0.076,0.363-0.164,0.578,0,0.712c-0.021,0.04-0.061,0.044-0.095,0.057
		c0.002,0.327,0.003,0.652,0.005,0.979c0.072,0.146,0.022,0.381,0.041,0.297c0.041-0.009,0.046,0.018,0.049,0.05v0.093
		c-0.044,0.011-0.062-0.005-0.086-0.014v0.142c0.053,0.059,0.039,0.185,0.181,0.159c-0.066,0.072-0.12,0.079-0.179,0.064
		c0.001,0.402,0.003,0.807,0.006,1.208c0.021-0.036,0.042-0.073,0.078-0.086c0.31,0.175,0.132,0.343,0.189,0.667h-0.267
		c0.004,0.427,0.005,0.856,0.008,1.283c0.006-0.064,0.027-0.114,0.021-0.191c0.113,0.021,0.103-0.085,0.238-0.048
		c-0.026,0.156,0.033,0.222,0.048,0.334c-0.03,0.065-0.184,0.006-0.189,0.096c0.039,0.138,0.118-0.063,0.237,0
		c0.009,0.084-0.051,0.237,0.095,0.188c-0.048,0.196-0.253,0.131-0.429,0.097c0.013-0.1,0.212-0.013,0.19-0.144
		c-0.011-0.087-0.156-0.042-0.209-0.084c0.007,1.569,0.015,3.14,0.023,4.709c0.101,0.13-0.015,0.25,0.044,0.415
		c-0.025-0.011-0.027-0.024-0.042-0.034c0.003,0.582,0.006,1.165,0.009,1.748c0.025,0.033,0.045,0.07,0.081,0.093h-0.081
		c0.003,0.448,0.005,0.896,0.008,1.342c0.039,0.18,0.058,0.342,0.001,0.434c0.021,3.955,0.041,7.912,0.062,11.866
		c0.065,0.029,0.118,0.038,0.2,0.144c-0.048,0.1-0.12,0.171-0.198,0.24c0.001,0.427,0.004,0.854,0.006,1.282
		c0-0.001,0.003,0,0.003-0.001c0.122,0.059,0.178,0.326,0.047,0.38c0.126,0.048,0.093,0.255,0.19,0.333
		c-0.062,0.073-0.144,0.107-0.235,0.112c0,0.113,0.001,0.229,0.001,0.343c3.343,0.473,6.685,0.959,10.032,1.456
		c-0.001-0.035-0.009-0.063-0.007-0.104c0.091,0.005,0.137,0.059,0.166,0.126c0.549,0.083,1.097,0.168,1.646,0.249
		c-0.002-0.093-0.019-0.171-0.1-0.185c0.071-0.057,0.116-0.141,0.236-0.144c-0.041,0.053-0.006,0.229,0.023,0.354
		c2.034,0.306,4.066,0.61,6.108,0.928c-0.076-0.12,0.073-0.184-0.094-0.189c0.129-0.304,0.416-0.283,0.522,0
		c-0.033,0.21-0.204,0.24-0.396,0.193c0.926,0.145,1.858,0.292,2.783,0.438c-0.004-0.007-0.003-0.007-0.009-0.013
		c0.031-0.144,0.103,0.045,0.189,0c-0.004,0.019-0.001,0.023-0.003,0.04c1.378,0.215,2.761,0.437,4.146,0.658
		c0.014-0.12,0.084-0.187,0.23-0.175c0.01,0.103,0.023,0.167,0.037,0.218c4.087,0.655,8.192,1.326,12.348,2.032
		c-0.097-21.363-0.189-42.725-0.286-64.085c4.786,0.505,9.355,1.007,14.339,0.589c10.752,23.189,21.476,47.194,32.144,72.157
		c13.707,2.813,27.376,5.844,41.011,9.085v-7.424c-11.995-27.808-24.093-54.3-36.25-79.705
		C544.619,274.025,544.536,273.728,544.413,273.599"/>
	<path clip-path="url(#SVGID_2_)" d="M275.627,291.637c-0.082,0.044-0.467-0.997-0.465-1.015c-0.557-1.222-1.114-2.441-1.672-3.661
		c-0.034-0.04-0.058-0.088-0.063-0.141c-0.906-1.984-27.351-60.199-28.565-62.894c-0.127-0.001-0.287-0.043-0.386-0.017
		c0.079-0.104,0.151-0.218,0.249-0.302c-1.68-3.726-3.355-7.477-5.035-11.212c-0.056-0.141-0.186-0.115-0.145-0.258
		c0.013-0.012,0.018,0,0.027-0.004c-1.805-4.016-3.611-8.025-5.414-12.053c-0.07-0.088-0.116-0.114-0.133-0.256
		c0.008,0.003,0.017,0.009,0.023,0.012c-0.625-1.398-1.251-2.804-1.876-4.203c-0.084,0.24-0.114-0.152-0.002-0.145
		c-3.31-7.406-6.617-14.432-9.921-22.423h-7.385c0.121,0,0.217,0.399,0.053,0.456c0.015-0.19-0.002-0.292-0.174-0.376
		c0.035-0.027,0.076-0.08,0.115-0.08h-8.662c-1.787,3.995-3.574,8.182-5.362,12.21c0.04,0.047,0.469,0.166,0.508,0.181
		c-0.024,0.141,0.067,0.336,0.067,0.422v-0.006c0,0.3-0.655,0.599-0.789,0.899c0.039,0.075-0.114,0.145-0.037-0.004
		c-0.023,0.066-0.02,0.169-0.154,0.205c-0.048-0.03-0.135-0.087-0.177-0.137c-0.492,1.109-1.007,2.209-1.499,3.319
		c0.012,0.026,0.012,0.049,0.027,0.062c-0.045,0.005-0.084,0.047-0.11,0.083c-0.004,0.01-0.013,0.021-0.017,0.031
		c-0.006,0.031-0.013,0.063,0.035,0.046c0.012,0.058-0.033,0.048-0.084,0.059c-0.697,1.574-1.395,3.156-2.093,4.733
		c0.008,0.019-0.003,0.032,0.019,0.054c-0.018,0.011-0.037,0.022-0.058,0.033c-0.114,0.262-0.231,0.526-0.347,0.788
		c0.056,0.065,0.076,0.136,0.119,0.206c-0.159,0.029,0.046,0.159-0.123,0.184c-0.026-0.041-0.073-0.003-0.112,0.006
		c0.011-0.033-0.001-0.077-0.007-0.117c-0.108,0.246-0.219,0.494-0.327,0.74c0.092,0.125,0.198,0.201,0.274,0.39
		c-0.059,0.033-0.118,0.066-0.176,0.099c-0.014-0.189-0.08-0.128-0.211-0.17c-0.01-0.016-0.009-0.019-0.015-0.03
		c-0.539,1.22-1.078,2.444-1.617,3.666c0.065,0.072,0.13,0.149,0.191,0.232c0.049,0.099-0.177,0.123-0.238,0.191
		c-0.005-0.078-0.028-0.135-0.056-0.188c-0.119,0.267-0.236,0.535-0.354,0.803c0.287-0.006,0.339,0.341,0.403,0.598
		c-0.288,0.035-0.367-0.27-0.436-0.526c-0.711,1.611-1.42,3.219-2.131,4.834c0.137,0.139,0.249,0.287,0.207,0.481
		c-0.076-0.031-0.182-0.152-0.298-0.276c-0.126,0.287-0.253,0.57-0.379,0.857c0.116,0.068,0.229,0.152,0.338,0.243
		c-0.087,0.05,0.013,0.152-0.125,0.188c-0.054-0.091-0.157-0.194-0.267-0.307c-0.108,0.246-0.217,0.489-0.324,0.735
		c0.029,0.021,0.059,0.038,0.079,0.09c-0.037,0.015-0.076-0.001-0.115-0.009c-0.257,0.583-0.513,1.16-0.769,1.744
		c0.019,0.015,0.039,0.029,0.054,0.059c-0.043,0.019-0.065,0.021-0.091,0.026c-0.008,0.016-0.016,0.033-0.022,0.05
		c0,0.018-0.007,0.027,0.032,0.085c-0.032,0.025-0.053,0.019-0.078,0.019c-0.102,0.234-0.205,0.471-0.309,0.705
		c0.037,0.005,0.07,0.017,0.109,0.008c-0.031,0.126,0.125,0.333,0.278,0.189c0.097,0.261-0.496,0.469-0.424,0.469
		c-0.063,0-0.134-0.053-0.201-0.123c-0.09,0.207-0.181,0.416-0.272,0.623c0.002-0.003,0.004-0.002,0.004-0.005
		c0.125,0.355,0.244,0.264,0.414,0.631c-0.144,0.033-0.078,0.125-0.193,0.166c0.049-0.174-0.129-0.206-0.235-0.213
		c0.027-0.202-0.024-0.282-0.091-0.345c-0.116,0.264-0.232,0.531-0.348,0.795c0.031-0.016,0.065-0.015,0.125,0.016
		c0.078,0.107-0.027,0.163-0.1,0.23c-0.025-0.052-0.059-0.071-0.092-0.095c-0.419,0.956-0.839,1.919-1.258,2.877
		c0.066,0.112,0.096,0.233-0.014,0.407c-0.059-0.004-0.096-0.039-0.135-0.067c-0.129,0.294-0.258,0.589-0.387,0.882
		c0.088,0.072,0.168,0.147,0.217,0.279c0.137,0.092,0.182-0.24,0.292,0.007c-0.188,0.066-0.257,0.248-0.549,0.252
		c0.015-0.087-0.03-0.16-0.093-0.232c-0.117,0.267-0.234,0.534-0.35,0.8c0.174,0.081,0.357,0.209,0.246,0.407
		c0.139-0.013,0.225,0.163,0.365,0.141c0,0.085-0.105,0.142-0.168,0.209c-0.102-0.235-0.347-0.401-0.511-0.604
		c-0.526,1.202-1.052,2.403-1.577,3.607c0.143,0.203,0.268,0.435,0.312,0.477c-0.237,0.277-0.314,0.043-0.441-0.184
		c-0.087,0.198-0.173,0.396-0.26,0.595c0.014,0.049,0.035,0.101,0.031,0.139c0.084,0.185,0.332-0.217,0.387,0.07
		c-0.139-0.066-0.09,0.01-0.223,0.012c0.092,0.022,0.15,0.165,0.215,0.279c0.028-0.04,0.058-0.082,0.037-0.135
		c0.156-0.024,0.025,0.172-0.056,0.204c0.111,0.098,0.081-0.129,0.198-0.055c0.25,0.363-0.262,0.515-0.569,0.725
		c-0.137-0.033-0.228-0.236-0.409-0.114c0.051-0.112,0.035-0.209,0.008-0.276c-0.049,0.11-0.097,0.311-0.146,0.311h0.007
		c0.1,0,0.047,0.229-0.007,0.312c-0.05,0.024-0.091,0.03-0.133,0.024c-0.39,0.892-0.778,1.782-1.168,2.676
		c0.06-0.036,0.112-0.045,0.137,0.048c-0.132,0.037-0.18,0.072-0.207,0.116c-0.009,0.021-0.019,0.043-0.028,0.064
		c-0.012,0.053-0.018,0.117-0.058,0.218c-0.007-0.013-0.017-0.021-0.022-0.033c-0.092,0.213-0.186,0.424-0.277,0.636
		c0.15,0.139,0.227,0.445,0.25,0.634c-0.266,0.106-0.312-0.102-0.467-0.138c-0.108,0.249-0.217,0.498-0.325,0.746
		c0.026-0.009,0.048,0,0.08-0.032c0.206,0.354,0.514,0.471,0.606,0.867c-0.088,0.05-0.175,0.099-0.262,0.148
		c-0.146-0.188-0.309-0.51-0.505-0.797c-0.397,0.914-0.797,1.843-1.195,2.758c0.022,0.054,0.062,0.112,0.079,0.163
		c-0.002,0.11-0.085,0.066-0.176,0.061c-0.141,0.324-0.281,0.65-0.421,0.973c0.1,0.126,0.198,0.263,0.312,0.396
		c-0.154,0.074-0.305,0.012-0.447-0.086c-0.101,0.233-0.202,0.47-0.305,0.705c0.146,0.107,0.29,0.21,0.398,0.386
		c-0.105,0.033-0.049,0.109-0.014,0.181c-0.058,0.032-0.117,0.065-0.176,0.099c-0.13-0.085-0.218-0.204-0.361-0.314
		c-0.553,1.275-1.106,2.554-1.659,3.832c0.008,0.028,0.02,0.06,0.028,0.085c-0.021,0.005-0.041-0.011-0.061-0.011
		c-0.148,0.341-0.296,0.682-0.443,1.022c0.09,0.117,0.18,0.242,0.26,0.392c-0.088,0.05-0.174,0.099-0.262,0.148
		c-0.056-0.044-0.106-0.107-0.154-0.179c-0.103,0.236-0.205,0.471-0.308,0.708c0.229,0.187,0.503,0.527,0.369,0.733
		c-0.088-0.18-0.312-0.364-0.44-0.567c-0.131,0.301-0.261,0.602-0.392,0.901c0.196,0.291,0.539,0.441,0.734,0.815
		c0.004,0.074-0.048,0.135-0.125,0.186c-0.242-0.329-0.712-0.358-0.556-0.779c-0.031-0.05-0.069-0.073-0.109-0.091
		c-0.399,0.922-0.797,1.837-1.196,2.759c0.11,0.12,0.175,0.278,0.116,0.422c-0.111,0.03-0.194-0.009-0.268-0.068
		c-0.125,0.287-0.25,0.573-0.375,0.861c0.074,0.104,0.137,0.261,0.256,0.461c-0.059-0.005-0.223-0.087-0.36-0.219
		c-0.121,0.28-0.241,0.556-0.362,0.836c0.145,0.148,0.417,0.306,0.426,0.589c-0.319-0.012-0.418-0.273-0.498-0.421
		c-0.16,0.373-0.322,0.744-0.482,1.118c0.186,0.145,0.302,0.534,0.507,0.605c-0.269,0.181-0.553-0.329-0.522-0.568
		c-0.424,0.98-0.847,1.976-1.27,2.959c0.076,0.141,0.145,0.293,0.25,0.381c0.021,0.067-0.088,0.099-0.148,0.143
		c-0.119-0.143-0.103-0.248-0.088-0.354c-0.028,0.005-0.053-0.01-0.076-0.023c-0.156,0.363-0.312,0.73-0.469,1.094
		c0.045-0.039,0.104-0.075,0.17-0.109c0.149,0.078,0.256,0.312,0.401,0.406c-0.001,0.11-0.319-0.132-0.126,0.187
		c-0.049,0.06-0.201-0.109-0.154,0.03c-0.144-0.026-0.24-0.216-0.341-0.398c-0.407,0.949-0.815,1.905-1.225,2.857
		c0.003,0.03,0.015,0.061,0.011,0.089c-0.016,0-0.029-0.009-0.043-0.015c-9.986,23.262-19.982,46.969-29.977,71.317
		c-0.01,1.961-0.022,3.925-0.031,5.885c12.179-1.449,24.374-2.733,36.578-3.855c2.89-6.741,5.779-13.444,8.668-20.107
		c9.344-0.701,18.693-1.312,28.047-1.843c-0.059-0.021-0.137-0.059-0.252-0.04c-0.067-0.229,0.113-0.21,0.08-0.403
		c0.277-0.061,0.134,0.298,0.324,0.322c-0.018,0.064-0.035,0.097-0.057,0.115c3.303-0.187,6.605-0.352,9.906-0.517
		c0.079-0.092,0.189-0.153,0.186-0.326c0.226,0.035,0.217,0.164,0.193,0.306c0.455-0.021,0.91-0.047,1.365-0.069
		c0.146-0.44-0.098-0.723-0.021-1.288c0.166,0.077,0.167,0.317,0.404,0.322c-0.206,0.389,0.146,0.716-0.212,0.957
		c0.355-0.017,0.713-0.039,1.07-0.056c0.009-0.248,0.08-0.485,0.194-0.577c0.073,0.146,0.082,0.353,0.091,0.562
		c2.938-0.142,5.879-0.267,8.819-0.391c-0.024-0.06-0.05-0.116-0.089-0.172c0.193-0.057,0.322,0.02,0.416,0.157
		c0.885-0.037,1.77-0.074,2.652-0.11c0.004-0.069-0.004-0.131,0.008-0.207c0.05,0.045,0.103,0.124,0.154,0.199
		c0.488-0.019,0.977-0.042,1.465-0.061c0.06-0.27-0.2-0.217-0.164-0.462c0.316,0.03-0.002-0.346,0.164-0.406
		c-0.233-0.004-0.26-0.604-0.082-0.892c0.3-0.024,0.416,0.551,0.244,0.729c-0.015,0.176,0.285,0.036,0.403,0.081
		c-0.084,0.317,0.025,0.499,0.001,0.924c0.299-0.01,0.598-0.026,0.896-0.037c-0.002-0.055-0.01-0.101-0.006-0.159
		c0.136-0.03,0.195,0.049,0.225,0.15c0.457-0.018,0.914-0.041,1.371-0.058c0.561,1.218,1.123,2.434,1.684,3.65
		c0.016-0.284,0.039,0.122,0.038-0.068c0.824,0.183,0.652-1.29,0.647,2.704h-0.096c0.789,0,1.578,2.742,2.366,4.452
		c0.011-0.157,0.035-0.648,0.077-0.777c0.242,0.404,0.605,0.945,0.646,1.287c0.016,0.161-0.082,0.05-0.2,0.026
		c1.131,2.451,2.26,4.861,3.392,7.312c0.521-0.02,1.045,0.23,1.567,0.212c-0.204-0.187-0.345-0.523-0.388-0.523h0.404
		c0.053,0-0.229-0.023,0.081-0.039c-0.012,0.316-0.048,0.196-0.019,0.399c0.93-0.033,1.859-0.123,2.789-0.153
		c-0.006-0.073-0.027-0.163-0.019-0.248c0.142,0.117,0.185,0.058,0.161-0.18c0.111,0.098,0.146,0.218,0.188,0.355
		c0.865-0.027,1.731-0.054,2.598-0.08c-0.007-0.095-0.008-0.19-0.032-0.291c0.063-0.068,0.22-0.048,0.242-0.161
		c0.069-0.016,0.077,0.03,0.081,0.079c0.015,0.092,0.08,0.045,0.08,0c0.132,0.101,0.119,0.23,0.105,0.354
		c0.836-0.026,1.672-0.051,2.508-0.075c-0.192-0.542-0.152-1.184,0.381-1.33c-0.307,0.377,0.142,0.842,0.34,1.309
		c0.792-0.021,1.583-0.049,2.375-0.07c-0.105-0.317-0.112-0.695-0.042-0.835c0.069-0.123,0.12,0.02,0.323-0.081
		c-0.102,0.31,0.127,0.614,0.197,0.902c0.83-0.021,1.659-0.055,2.49-0.075c-0.012-0.28,0.066-0.584,0.145-0.827
		c0.302,0.062,0.427,0.449,0.447,0.81c0.872-0.02,1.746-0.042,2.619-0.06c-0.014-0.261,0.062-0.55,0.171-0.669
		c0.32,0.075,0.366,0.365,0.356,0.661c0.885-0.021,1.768-0.027,2.652-0.044c-0.127-0.392-0.144-0.796-0.096-0.779
		c0.004-0.639,0.311,0.539,0.485,0.729c-0.009,0.016-0.019,0.027-0.029,0.044c0.929-0.02,1.854-0.03,2.781-0.045
		c-0.24-0.271-0.244-0.416-0.161-0.729c0.371,0.047,0.325,0.55,0.162,0.729c1.079-0.02,2.156-0.038,3.236-0.054
		c0.037-0.397-0.211-0.51-0.323-0.756c-0.087-0.302,0.2-0.23,0.161-0.486c0.621-0.095,0.604,0.832,0.566,0.729
		c0.034,0.092,0.297,0.28,0.187,0.503c0.88-0.013,1.758-0.032,2.638-0.043c-0.156-0.226-0.096-0.77-0.152-0.863
		c0.312-0.245,1.297,0.562,1.104,0.858c1.334-0.017,0.649-0.053,4.644-0.065v-5.538
		C289.314,318.788,276.111,292.698,275.627,291.637 M196.215,196.497c-0.035-0.094,0.064-0.149,0.033-0.244
		c0.043,0.073,0.107,0.144,0.123,0.215C196.308,196.519,196.273,196.469,196.215,196.497 M230.555,275.053
		c-0.154-0.034-29.182,0.324-33.328,0.534c0.285-0.699,0.569-1.391,0.854-2.089c-0.152-0.024-0.26-0.093-0.223-0.308
		c0.069-0.014,0.077,0.032,0.082,0.082c0.043,0.104,0.137,0.058,0.215,0.046c2.155-5.295,4.31-10.57,6.465-15.828
		c-0.025-0.05-0.041-0.103-0.033-0.143c0.027,0.002,0.056,0.01,0.084,0.017c0.203-0.497,0.54-0.999,0.742-1.495
		c-0.051-0.004-0.006-0.007-0.006,0.002v1.104h-0.061c0.623-3.996,1.245-3.662,1.867-5.174c-0.104-0.013-0.09-0.548-0.016-0.621
		c-0.02,0.058,0.028-0.055,0.08-0.009c0.308-0.747,0.614-1.575,0.922-2.324c-0.006-0.087-0.043-0.196-0.145-0.221
		c0.055-0.171,0.158-0.148,0.229-0.039c0.418-1.017,0.836-2.039,1.252-3.057c-0.045-0.071-0.084-0.154-0.088-0.254
		c0.073-0.031,0.138-0.031,0.196-0.014c0.123-0.301,0.247-0.603,0.371-0.902c-0.093,0.001-0.127-0.208-0.2-0.274
		c0.098-0.008,0.166,0.089,0.229,0.203c0.675-1.641,1.348-3.276,2.021-4.914c-0.007,0-0.013-0.007-0.021-0.005
		c0.085-0.185-0.356-0.802-0.14-0.554c0.086,0.007,0.215,0.067,0.33,0.146c0.555-1.346,1.109-2.7,1.664-4.041
		c0.034,0.082,1.035,2.425,1.487,3.486c0.086-0.066,4.541,10.575,4.565,10.575c-0.004,0,1.49,3.18,1.379,3.348
		c0.021,0.048,1.6,3.697,1.617,3.699c-0.006,0.017-0.011,0.035-0.018,0.05c0.846,1.973,1.691,3.937,2.537,5.905
		c0.009-0.083,0.021-0.163,0.07-0.208c0.111-0.018,0.138,0.045,0.205,0.069c-0.023-0.011,0.002-0.084-0.043-0.069
		c0.05,0.005,0.095,0.013,0.08,0.082c-0.016-0.001-0.024-0.009-0.037-0.013c0.146,0.064,0.022,0.466,0.037,0.661
		c-0.084-0.024-0.093-0.121-0.158-0.162c0.088,0.205,0.176,0.409,0.263,0.613c0.035-0.005,0.074-0.015,0.14-0.049
		c0.033,0.198,0.029,0.317,0.02,0.416C226.341,264.021,230.818,274.746,230.555,275.053"/>
	<path clip-path="url(#SVGID_2_)" d="M414.37,270.84c-0.09,0.229-0.185,0.479-0.271,0.689c-1.569,0.393-3.439,0.547-5.152,0.09
		c-6.255-1.678-13.86,8.192-10.607,13.825c0.873,1.515,1.575,3.075,1.478,4.94c-2.454,2.552-9.704,6.606-13.828,7.784
		c-1.374-0.784-2.552-2.169-3.395-3.631c-0.904-1.566-2.696-2.486-4.793-2.865c-2.747,0.755-5.677,1.182-8.756,1.271
		c-1.865,0.937-3.305,2.281-3.76,3.979c-0.447,1.679-1.234,3.317-2.509,4.498c-1.35,0.033-3.082-0.232-4.922-0.65
		c-0.002,0.033-0.014,0.061,0.008,0.1c-0.136,0.017-0.192-0.05-0.219-0.143c-3.468-0.805-7.304-2.151-9.831-3.227
		c-0.291-1.767-0.548-3.571-0.089-5.285c0.115-0.431,0.174-0.863,0.188-1.296c-0.042,0.119-0.196,0.127-0.167,0.317
		c-0.23-0.105,0.24-0.667-0.162-0.726c0.055-0.176,0.259,0.138,0.32,0.232c0.008-1.122-0.288-2.233-0.825-3.289
		c-0.021-0.008-0.04-0.008-0.062-0.021c-0.004-0.034,0.02-0.041,0.022-0.067c-0.224-0.43-0.494-0.848-0.79-1.254
		c-1.601-1.158-3.099-2.45-4.498-3.848c-2.713-1.461-5.761-1.96-7.922-0.712c-0.921,0.532-1.928,0.884-2.928,1.071
		c-0.012,0.19-0.271,0.454-0.312,0.603c-0.189,0.012-0.123-0.305-0.033-0.552c-0.533,0.079-1.056,0.108-1.565,0.08
		c-0.004,0.022-0.02,0.045-0.022,0.066c-0.012-0.016-0.008-0.049-0.017-0.067c-0.128-0.008-0.26,0.005-0.385-0.01
		c-0.339-0.392-0.706-0.859-1.084-1.374c-0.096,0-0.226-0.033-0.295-0.006c0.055-0.203-0.09-0.359-0.241-0.487
		c0.021-0.073,0.031-0.129,0.045-0.188c-2.369-3.382-5.11-8.396-5.904-10.938c0.55-1.563,1.834-2.811,3.348-3.747
		c0.021-0.095,0.039-0.191,0.084-0.26h0.161c-0.003,0.079-0.1,0.062-0.161,0.08c0.003,0.046,0.027,0.067,0.061,0.083
		c0.054-0.033,0.104-0.073,0.159-0.104c0.229-0.134,0.431-0.299,0.642-0.455c-0.035-0.147-0.1-0.266-0.055-0.494
		c0.228,0.227,0.229-0.185,0.326-0.324c0.004-0.023-0.005-0.034-0.014-0.046c0.104,0.048,0.215,0.217,0.349,0.367
		c0.367-0.343,0.696-0.728,0.994-1.142c-0.086-0.158,0.089-0.484,0.128-0.637c0.082,0.098,0.134,0.152,0.181,0.203
		c0.04-0.065,0.085-0.124,0.124-0.189c-0.081-0.053-0.137-0.129-0.143-0.257c0.128-0.025,0.197,0.006,0.24,0.063
		c1.636-2.904,1.807-6.913,0.275-10.032c-0.169,0.007-0.167,0.188-0.356,0.176c0.212-0.335-0.066-0.095-0.242-0.243
		c0-0.248,0.194-0.302,0.329-0.412c-0.018-0.033-0.039-0.064-0.059-0.098c-0.021,0.077-0.056,0.15-0.109,0.188
		c-0.275-0.034,0.123-0.444-0.078-0.405c0.021-0.018,0.028-0.007,0.047-0.017c-0.995-1.59-2.489-2.855-4.526-3.492
		c-0.014,0.013-0.048,0.007-0.054,0.026c-0.034-0.022-0.044-0.045-0.052-0.065c-0.081-0.024-0.149-0.062-0.232-0.084
		c-1.874-0.502-4.218-2.054-4.612-2.937c0.018-0.281,0.054-0.61,0.097-0.959c-0.005,0.003-0.01,0.002-0.015,0.007
		c-0.02-0.076-0.006-0.146,0.041-0.209c0.062-0.449,0.141-0.941,0.237-1.469c-0.021-0.018-0.046-0.023-0.063-0.05
		c0.031-0.029,0.053-0.015,0.071,0.005c0.18-0.987,0.414-2.08,0.685-3.206c-0.101-0.012-0.053-0.758,0.168-0.691
		c0.558-2.246,1.223-4.531,1.835-6.232c-0.016-0.066,0.028-0.12-0.04-0.198c0.058,0.011,0.09,0.001,0.119-0.016
		c0.18-0.492,0.354-0.933,0.52-1.297c1.67-0.688,3.715-0.837,5.666-0.314c2.052,0.549,4.286-0.391,6.225-2.03
		c0.525-1.134,1.086-2.235,1.698-3.287c-0.106,0.062-0.222,0.117-0.294,0.144c-0.042-0.069-0.081-0.135-0.123-0.204
		c0.076-0.181,0.271-0.057,0.296-0.245c0.072,0.006,0.134,0.043,0.198,0.088c0.053-0.077,0.036-0.172-0.014-0.271
		c0.156,0.021,0.066-0.046,0.216-0.128c0.014,0.023,0.03,0.047,0.044,0.071c0.539-0.891,1.109-1.75,1.711-2.575
		c-0.015-0.015-0.034-0.021-0.047-0.05c0.052-0.038,0.117-0.091,0.188-0.142c0.303-0.409,0.638-0.782,0.955-1.175
		c0.148-0.704,0.227-1.394,0.186-2.037c-0.16,0.175-0.316,0.35-0.109,0.606c-0.169-0.081-0.352-0.132-0.469-0.416
		c0.175-0.063,0.119-0.019,0.334-0.059c0.051-0.056,0.061-0.367-0.123-0.206c-0.003-0.164,0.16-0.201,0.315-0.25
		c-0.074-0.627-0.231-1.218-0.527-1.733c-0.207-0.357-0.356-0.732-0.486-1.111c-0.091,0.049-0.183,0.092-0.27,0.125
		c-0.135-0.134,0.089-0.188-0.045-0.322c0.087,0.031,0.159,0.013,0.227-0.019c-0.343-1.092-0.445-2.228-0.553-3.296
		c-0.12,0.068-0.234,0.131-0.287,0.2c-0.082,0.029-0.121-0.101-0.176-0.172c-0.013-0.164,0.3-0.009,0.154-0.232
		c0.094-0.054,0.186-0.108,0.272-0.143c-0.011-0.096-0.021-0.198-0.031-0.292c1.404-1.161,3.824-2.738,6.308-4.16
		c0.062-0.055,0.134-0.109,0.235-0.156c0.004,0.008-0.001,0.013,0,0.021c0.429-0.243,0.856-0.479,1.281-0.708
		c-0.06-0.173,0.619-0.589,0.737-0.729c-0.021,0.156-0.148,0.339-0.293,0.489c1.875-0.994,3.639-1.806,4.86-2.176
		c0.56,0.232,1.235,0.695,1.892,1.284c0.183-0.166,0.28-0.399,0.532-0.436c0.105,0.155-0.29,0.199-0.063,0.385
		c-0.104,0.003-0.219,0.078-0.332,0.173c0.479,0.445,0.938,0.957,1.331,1.497c0.038-0.015,0.072-0.034,0.122-0.044
		c0.003,0.051-0.022,0.096-0.05,0.139c0.137,0.195,0.265,0.393,0.38,0.593c0.23,0.398,0.552,0.744,0.91,1.064
		c0.08-0.057,0.14-0.114,0.241-0.176c-0.108,0.046-0.163,0.127-0.193,0.216c0.256,0.223,0.532,0.428,0.842,0.613
		c0.411-0.119,0.556-0.495,0.894-0.709c0.095,0.367-0.308,0.67-0.621,0.861c0.068,0.038,0.131,0.078,0.201,0.113
		c1.291-0.314,2.621-0.564,3.987-0.738c0.003-0.05,0.019-0.096,0.097-0.13c0.051,0.01,0.089,0.055,0.126,0.105
		c0.207-0.025,0.415-0.049,0.622-0.071c-0.126,0.036-0.196-0.245-0.176-0.307c0.131-0.085,0.257-0.164,0.332-0.057
		c0.065-0.071-0.061-0.054-0.094-0.156c0.101-0.086,0.167-0.049,0.249-0.078c-0.12,0.255,0.07,0.091,0.193-0.045
		c0.091,0.172,0.042,0.416,0.291,0.242c-0.05,0.199-0.152,0.179-0.347,0.279c-0.066-0.073-0.002-0.117-0.039-0.187
		c-0.124,0.064-0.146,0.148-0.071,0.252c-0.138-0.08-0.318-0.205-0.331,0.056c0.582-0.061,1.172-0.107,1.768-0.142
		c0.129-0.152,0.296-0.3,0.572-0.488c-0.061,0.294-0.364,0.149-0.009,0.354c-0.122,0.009-0.218,0.058-0.304,0.118
		c0.494-0.026,0.991-0.041,1.493-0.048c0.003-0.02,0.004-0.041-0.017-0.075c0.088-0.003,0.174,0.001,0.24,0.072
		c0.303-0.003,0.603-0.015,0.907-0.011c1.039,0.014,2.051,0.071,3.048,0.149c0.379-0.255,0.722-0.535,1.033-0.84
		c-0.173,0.112-0.399,0.126-0.561,0.204c-0.133-0.118-0.004-0.179-0.099-0.288c0.198,0.13,0.293-0.089,0.379-0.226
		c0.038,0.124,0.134,0.05,0.224,0.005c0.014,0.048-0.024,0.084,0.006,0.134c0.179-0.207-0.187-0.259-0.052-0.455
		c0.119-0.052,0.188,0.075,0.309,0.025c0.014,0.235-0.178-0.096-0.301,0.11c0.136-0.055,0.194,0.162,0.314,0.159
		c-0.017,0.096-0.058,0.158-0.098,0.216c0.64-0.661,1.132-1.419,1.368-2.299c0.192-0.728,0.513-1.468,0.891-2.147
		c-0.137,0.001-0.071-0.25,0.057-0.295c0.019,0.031,0.038,0.064,0.059,0.097c0.028-0.049,0.056-0.1,0.086-0.148
		c0.003-0.024,0.016-0.044,0.038-0.063c0.514-0.832,1.108-1.534,1.667-1.939c5.008,0.49,11.751,2.471,14.598,3.943
		c0.395,1.277,0.648,3.459,0.168,5.26c-1.546,5.762,8.811,13.505,13.822,10.61c1.566-0.904,3.283-1.287,4.964-1.209
		c2.181,2.645,5.931,8.405,7.334,12.71c6.384,0.23,12.741,0.479,19.509,0.761c-5.77-41.869-37.773-59.334-67.651-59.704
		c0.139,0.31-0.5,0.448-0.605,0.706c-0.163,0.029-0.042-0.242-0.213-0.359c0.243-0.024,0.558-0.314,0.802-0.347
		c-0.404-0.005-0.811-0.02-1.217-0.018c-1.314,0.003-2.631,0.046-3.947,0.113c-0.003,0.04-0.004,0.081,0.027,0.128
		c-0.107,0.003-0.148-0.053-0.187-0.117c-0.98,0.051-1.959,0.112-2.937,0.199c0.02,0.071,0.021,0.138,0.067,0.214
		c-0.29,0.152-0.309,0.31-0.564,0.408c-0.084,0.026-0.123-0.101-0.178-0.173c0.254-0.058,0.274-0.249,0.424-0.422
		c-0.52,0.049-1.038,0.112-1.557,0.171c0.021,0.015,0.046,0.023,0.061,0.056c-0.138,0.028-0.274,0.045-0.389-0.02
		c-0.392,0.045-0.784,0.078-1.175,0.128c-0.009,0.025-0.021,0.051-0.018,0.074c-0.065-0.002-0.109-0.028-0.159-0.049
		c-1.015,0.135-2.025,0.292-3.035,0.466c0.053,0.148-0.016,0.286,0.217,0.25c-0.409,0.279-0.578,0.179-0.873,0.383
		c-0.084-0.137-0.163-0.274-0.246-0.411c0.061-0.051,0.128-0.082,0.195-0.095c-0.902,0.164-1.804,0.341-2.699,0.535
		c-0.105,0.159-0.271,0.444-0.332,0.351c-0.038,0.035-0.022,0.084-0.078,0.115c0.076,0.057,0.16,0.076,0.256,0.057
		c-0.11,0.169-0.543,0.162-0.596,0.356c-0.129,0.019-0.282-0.137-0.237-0.275c0.22,0.263,0.133-0.199,0.44-0.124
		c0.059-0.152,0.179-0.291,0.296-0.43c-0.623,0.137-1.239,0.298-1.858,0.45c-0.062,0.037-0.118,0.065-0.189,0.123
		c0.005-0.021-0.019-0.049-0.021-0.072c-0.248,0.062-0.495,0.117-0.742,0.181c0.042,0.025,0.081,0.055,0.128,0.061
		c0.07,0.128-0.171,0.117-0.19,0.045c-0.052,0.019-0.041,0.05-0.025,0.083c-0.119,0.058-0.039-0.061-0.078-0.148
		c-0.759,0.197-1.513,0.417-2.268,0.638c-0.001,0.003,0.002,0.007,0,0.01c-0.071,0.043-0.146,0.086-0.216,0.128
		c-0.03-0.006-0.038-0.041-0.062-0.057c-0.083,0.025-0.168,0.047-0.251,0.073c-0.006,0.059-0.012,0.118-0.014,0.179
		c-0.04,0.036-0.064,0.01-0.084-0.019c-0.017-0.049-0.05-0.036-0.084-0.019c0.009-0.04,0.022-0.071,0.036-0.099
		c-0.938,0.284-1.866,0.588-2.79,0.907c-0.088,0.234-0.656,0.28-0.706,0.239c-0.312,0.111-0.626,0.218-0.938,0.333
		c0.044,0.154-0.085,0.237-0.231,0.091c-1.246,0.466-2.479,0.97-3.701,1.5c-0.089,0.241-0.897,0.564-0.971,0.432
		c-1.707,0.771-3.391,1.6-5.037,2.498c-0.031,0.027-0.063,0.053-0.088,0.081c-0.008-0.011-0.015-0.01-0.021-0.02
		c-0.532,0.29-1.06,0.587-1.585,0.892c0.003,0.005,0.003,0.009,0.006,0.015c-0.024,0.004-0.058,0.022-0.086,0.03
		c-0.182,0.106-0.371,0.203-0.553,0.312c-0.135,0.113-0.413,0.31-0.425,0.262c-0.269,0.162-0.53,0.335-0.796,0.501
		c-0.002,0.026-0.046,0.054-0.066,0.04c-0.098,0.062-0.196,0.124-0.296,0.186c-0.028,0.198-0.754,0.543-0.799,0.502
		c-0.436,0.283-0.868,0.57-1.298,0.862c0.012,0.027-0.721,0.557-0.744,0.52c-2.008,1.4-3.948,2.906-5.814,4.522
		c0.081-0.028-0.978,1.066-1.071,0.922c-0.205,0.185-0.402,0.382-0.604,0.57c0.008,0.024,0.032,0.036,0.037,0.064
		c-0.053-0.014-0.09,0.016-0.135,0.028c-0.189,0.176-0.374,0.358-0.562,0.536c-0.007,0.251-0.159,0.617-0.451,0.469
		c-0.109,0.166-0.194,0.217-0.263,0.211c-0.583,0.569-1.152,1.154-1.717,1.746c0.04,0.009-0.687,0.766-0.712,0.753
		c-0.674,0.73-1.331,1.479-1.979,2.243c0.075-0.042-0.014,0.223-0.056,0.168c-0.245,0.177-0.358,0.47-0.647,0.658
		c-0.608,0.745-1.199,1.513-1.783,2.29c0.026-0.032,0.058-0.062,0.098-0.091c0.038,0.196-0.143,0.154-0.118,0.119
		c-0.129,0.172-0.263,0.339-0.391,0.514c-0.024,0.071-0.039,0.145-0.002,0.23c-0.104,0.07-0.178,0.087-0.246,0.094
		c-0.308,0.424-0.599,0.863-0.898,1.295c0.413-0.126-0.073,0.275-0.066,0.099c-0.584,0.848-1.156,1.71-1.708,2.593
		c0.124,0.103-0.135,0.565-0.447,0.739c-0.279,0.46-0.565,0.915-0.837,1.385c0.211-0.216,0.4,0.183-0.138,0.227
		c-1.041,1.822-1.993,3.727-2.889,5.688c0.059,0.087-0.14,0.449-0.257,0.549c-0.226,0.509-0.447,1.023-0.664,1.54
		c0.044-0.04,0.057,0.188-0.106,0.265c-0.01,0.028-0.021,0.055-0.031,0.082c0.004-0.002,0.009-0.002,0.015-0.005
		c0.031,0.053,0.002,0.069-0.04,0.063c-0.193,0.47-0.385,0.94-0.568,1.417c0.055-0.017,0.045,0.24-0.064,0.157
		c-0.936,2.426-1.758,4.95-2.464,7.568c0.062,0.043-0.034,0.357-0.099,0.345c-1.566,5.915-2.52,12.324-2.778,19.215
		c0.139,0.156,0.134,0.661-0.017,0.608c-0.027,0.898-0.07,1.788-0.074,2.703c0.019,5.047,0.426,9.833,1.154,14.383
		c0.062-0.065,0.133-0.118,0.27-0.106c-0.023,0.188-0.15,0.274-0.213,0.428c0.166,1.011,0.332,2.023,0.531,3.011
		c0.041,0.051,0.123,0.077,0.33,0.042c-0.142,0.123-0.187,0.31-0.209,0.506c0.364,1.747,0.791,3.444,1.256,5.113
		c0.005-0.243,0.054-0.513,0.168-0.684c0.305,0.216,0.04,0.595,0.162,0.891c-0.114-0.008-0.168,0.047-0.252,0.064
		c0.62,2.201,1.312,4.346,2.097,6.41h0.098c0.018,0.146,0.056,0.311,0.095,0.479c3.309,8.524,7.97,15.896,13.611,22.123
		c0.005-0.08,0.019-0.164,0.053-0.265c0.209,0.151,0.268,0.413,0.315,0.658c1.951,2.121,4.014,4.109,6.177,5.963
		c0.11-0.093,0.191-0.218,0.385-0.226c-0.068,0.089-0.011,0.382,0.039,0.596c1.014,0.855,2.043,1.689,3.098,2.487
		c0.005-0.056,0.01-0.106,0.021-0.169c0.028,0.091,0.044,0.162,0.058,0.23c2.507,1.891,5.131,3.602,7.833,5.166
		c-0.004-0.117-0.02-0.229-0.123-0.3c0.161-0.182,0.153-0.213,0.324-0.486c0.161,0.174,0.125,0.631,0.221,1.033
		c11.577,6.607,24.738,10.276,37.847,11.055c14.302,0.862,28.909-1.537,41.053-8.625c0.018-0.084,0.036-0.172-0.017-0.241
		c0.111,0.002,0.174,0.055,0.215,0.128c1.105-0.653,2.197-1.334,3.26-2.066c0.021-0.13,0.073-0.27,0.137-0.393
		c0.01,0.056,0.028,0.153,0.045,0.262c0.246-0.172,0.484-0.352,0.729-0.529c-0.042-0.043-0.087-0.085-0.156-0.062
		c0.052-0.173,0.232,0.006,0.285-0.098c0.035,0.004,0.044,0.018,0.05,0.031c1.062-0.769,2.106-1.574,3.117-2.429
		c-0.114-0.098,0.156-0.097,0.114-0.217c0.04,0.007,0.056,0.036,0.076,0.062c0.243-0.208,0.477-0.43,0.717-0.644
		c-0.022-0.015-0.034-0.033-0.081-0.036c0.012-0.087,0.171-0.267,0.048-0.333c0.066-0.064,0.189,0.053,0.271,0.154
		c0.242-0.221,0.487-0.438,0.728-0.661c-0.048-0.085-0.12-0.146-0.189-0.207c0.006-0.104,0.117-0.102,0.236-0.093
		c0-0.096-0.131-0.063-0.095-0.19c-0.063,0.015-0.075,0.084-0.142,0.093c-0.092,0.094,0.131-0.221,0.142-0.332
		c0.074,0.021,0.04,0.148,0.189,0.096c-0.262,0.061,0.054,0.349-0.142,0.523c0.011,0.04,0.031,0.053,0.051,0.062
		c0.211-0.195,0.424-0.384,0.63-0.583c0-0.067-0.042-0.157-0.017-0.288c0.065,0.036,0.07,0.132,0.09,0.213
		c0.003-0.001,0.005-0.004,0.008-0.007c0.047-0.089-0.038-0.323-0.05-0.444c0.039,0.024,0.076,0.049,0.143,0.046
		c0.036-0.143-0.132-0.09-0.095-0.237c0.128-0.084,0.092,0.211,0.143,0.05c0.045,0.129,0.021,0.064,0.191,0
		c0.025,0.067,0.033,0.14,0.036,0.213c0.135-0.135,0.267-0.273,0.4-0.408c0.024-0.132,0.143-0.295,0.037-0.376
		c0.043-0.138,0.071-0.054,0.19-0.048c-0.021-0.09-0.136-0.084-0.094-0.237c0.189,0.039,0.196,0.173,0.184,0.338
		c0.196-0.202,0.399-0.396,0.595-0.603c0.006-0.146-0.021-0.354-0.114-0.259c-0.092-0.079,0.143-0.233,0.096-0.427h0.143
		c0.113,0.07,0.123,0.244,0.142,0.409c0.179-0.194,0.349-0.401,0.525-0.599h-0.001c-0.031-0.279-0.051-0.475,0.046-0.714
		c0.212-0.069,0.125,0.161,0.287,0.143c-0.045,0.06-0.048,0.151-0.042,0.24c0.197-0.224,0.396-0.444,0.589-0.67
		c-0.008,0-0.02-0.001-0.025,0c0.003-0.062,0.047-0.084,0.105-0.093c0.027-0.031,0.057-0.063,0.085-0.096h-0.19
		c0.161-0.2,0.041-0.416-0.142-0.521c0.152-0.072,0.053-0.173,0.047-0.334c0.212,0.01,0.136,0.309,0.334,0.334
		c-0.109,0.19-0.066,0.3-0.011,0.479c0.227-0.27,0.451-0.543,0.674-0.816c-0.018-0.059-0.057-0.311-0.093-0.188
		c-0.106-0.006,0.061-0.12,0-0.237h0.181c0.012,0.054,0.011,0.145,0.043,0.256c0.181-0.226,0.356-0.458,0.536-0.688
		c-0.018,0-0.029,0.005-0.048,0.002c-0.012-0.234,0.249-0.193,0.191-0.474c0.085-0.003,0.117,0.05,0.144,0.105
		c0.188-0.247,0.387-0.48,0.573-0.733c-0.052-0.031-0.139-0.058-0.1-0.18c0.14-0.032,0.101-0.032,0.228-0.001
		c0.002-0.004,0.003-0.005,0.005-0.008c-0.003-0.12-0.153-0.09-0.089-0.277c-0.044,0.021-0.087,0.042-0.097,0.096
		c-0.13-0.119-0.038-0.184-0.047-0.379c0.112,0.03,0.302-0.203,0.095-0.192c-0.021-0.148,0.042-0.212,0.188-0.19
		c-0.093,0.215-0.045,0.216,0,0.476c0.047,0.013,0.113,0.086,0.158,0.167c0.254-0.354,0.5-0.718,0.748-1.08
		c-0.08,0.021-0.151,0.045-0.192,0.105c-0.081-0.129,0.021-0.385-0.047-0.569c0.206,0.111,0.172-0.222,0.476-0.145
		c0.035,0.13-0.095,0.098-0.095,0.191c0.031,0.074,0.073,0.057,0.124,0.032c0.089-0.133,0.183-0.258,0.27-0.39
		c-0.005-0.008-0.011-0.014-0.014-0.023c0.014-0.003,0.015,0.007,0.025,0.007c0.871-1.322,1.688-2.713,2.471-4.153
		c-0.063-0.111-0.048-0.338,0.072-0.323c-0.069-0.072-0.194-0.093-0.145-0.282c0.056,0.006,0.085-0.014,0.097-0.05
		c0.09,0.072,0.101,0.227,0.14,0.352c0.207-0.386,0.42-0.764,0.621-1.158c0.317-0.626,0.616-1.278,0.917-1.924
		c-0.025-0.038-0.047-0.075-0.109-0.073c0.037-0.043,0.05-0.107,0.046-0.19c0.078-0.015,0.083,0.046,0.145,0.049
		c-0.01,0.053-0.049,0.024-0.049,0c-0.102,0.036-0.052,0.078,0.021,0.096c0.024-0.051,0.049-0.101,0.072-0.15
		c-0.037-0.123-0.144-0.311-0.045-0.423c0.096,0.016,0.117,0.11,0.151,0.19c2.922-6.442,5.013-13.932,6.031-22.62
		C427.816,271.669,421.099,271.239,414.37,270.84"/>
	<path clip-path="url(#SVGID_2_)" d="M379.515,253.288c0,7.449-6.038,13.488-13.488,13.488c-7.449,0-13.488-6.039-13.488-13.488
		s6.039-13.488,13.488-13.488C373.477,239.8,379.515,245.839,379.515,253.288"/>
	<path clip-path="url(#SVGID_2_)" d="M269.77,4.956c0.874,0.373,1.627,0.86,2.258,1.467c0.631,0.608,1.137,1.334,1.525,2.175
		c0.387,0.842,0.581,1.731,0.581,2.672v35.741c0,0.31-0.115,0.573-0.336,0.788c-0.226,0.22-0.499,0.325-0.824,0.325h-8.483
		c-0.328,0-0.592-0.105-0.795-0.325c-0.205-0.215-0.306-0.478-0.306-0.788V14.382h-6.835v32.629c0,0.31-0.102,0.573-0.307,0.788
		c-0.202,0.22-0.469,0.325-0.795,0.325h-7.688c-0.325,0-0.601-0.105-0.823-0.325c-0.225-0.215-0.337-0.478-0.337-0.788V14.382
		h-6.837v32.629c0,0.74-0.385,1.113-1.156,1.113h-8.426c-0.771,0-1.16-0.373-1.16-1.113V5.515c0-0.745,0.389-1.118,1.16-1.118
		h36.805C267.969,4.396,268.893,4.583,269.77,4.956"/>
	<path clip-path="url(#SVGID_2_)" d="M311.094,37.504c0.345,0,0.623,0.117,0.838,0.346c0.216,0.228,0.323,0.508,0.323,0.844v8.245
		c0,0.33-0.107,0.61-0.323,0.839c-0.215,0.233-0.493,0.345-0.838,0.345h-29.041c-0.816,0-1.227-0.396-1.227-1.184V5.585
		c0-0.793,0.41-1.189,1.227-1.189h8.91c0.817,0,1.225,0.396,1.225,1.189v30.796c0,0.335,0.117,0.605,0.356,0.812
		c0.234,0.208,0.526,0.31,0.87,0.31H311.094z"/>
	<path clip-path="url(#SVGID_2_)" d="M355.745,4.396c0.345,0,0.634,0.117,0.874,0.346c0.234,0.229,0.354,0.508,0.354,0.844v41.353
		c0,0.331-0.12,0.61-0.354,0.839c-0.24,0.234-0.529,0.346-0.874,0.346h-8.989c-0.347,0-0.637-0.112-0.873-0.346
		c-0.236-0.229-0.355-0.508-0.355-0.839V32.507c0-0.33-0.108-0.605-0.323-0.813c-0.216-0.209-0.498-0.31-0.842-0.31h-12.806
		c-0.345,0-0.637,0.101-0.87,0.31c-0.239,0.208-0.358,0.483-0.358,0.813v14.432c0,0.788-0.408,1.185-1.226,1.185h-8.927
		c-0.817,0-1.229-0.397-1.229-1.185V5.586c0-0.794,0.411-1.19,1.229-1.19h8.927c0.817,0,1.226,0.396,1.226,1.19v13.989
		c0,0.793,0.411,1.19,1.229,1.19h12.806c0.344,0,0.626-0.117,0.842-0.346c0.215-0.229,0.323-0.508,0.323-0.844V5.586
		c0-0.336,0.119-0.616,0.355-0.844s0.526-0.346,0.873-0.346H355.745z"/>
</g>
</svg>
